<mxfile host="65bd71144e">
    <diagram id="zYcWtqphPFPq5_k9Tz09" name="sun-card structure">
        <mxGraphModel dx="2036" dy="806" grid="0" gridSize="10" guides="1" tooltips="1" connect="1" arrows="1" fold="1" page="0" pageScale="1" pageWidth="827" pageHeight="1169" math="0" shadow="0">
            <root>
                <mxCell id="0"/>
                <mxCell id="1" parent="0"/>
                <mxCell id="15" style="edgeStyle=orthogonalEdgeStyle;html=1;entryX=0.5;entryY=0;entryDx=0;entryDy=0;fontColor=default;" parent="1" source="2" target="12" edge="1">
                    <mxGeometry relative="1" as="geometry"/>
                </mxCell>
                <mxCell id="2" value="Start&#10;&#10;" style="shape=waypoint;fillStyle=solid;size=6;pointerEvents=1;points=[];fillColor=none;resizable=0;rotatable=0;perimeter=centerPerimeter;snapToPoint=1;spacingTop=0;rounded=1;" parent="1" vertex="1">
                    <mxGeometry x="200" y="240" width="20" height="20" as="geometry"/>
                </mxCell>
                <mxCell id="19" style="edgeStyle=orthogonalEdgeStyle;html=1;exitX=1;exitY=0.5;exitDx=0;exitDy=0;entryX=0;entryY=0.75;entryDx=0;entryDy=0;fontColor=default;" parent="1" source="5" target="11" edge="1">
                    <mxGeometry relative="1" as="geometry"/>
                </mxCell>
                <mxCell id="20" style="edgeStyle=orthogonalEdgeStyle;html=1;fontColor=default;" parent="1" source="5" target="7" edge="1">
                    <mxGeometry relative="1" as="geometry"/>
                </mxCell>
                <mxCell id="5" value="&lt;div style=&quot;background-color: rgb(255, 255, 255); font-family: &amp;quot;Droid Sans Mono&amp;quot;, &amp;quot;monospace&amp;quot;, monospace; font-size: 14px; line-height: 19px;&quot;&gt;&lt;div style=&quot;line-height: 19px;&quot;&gt;f7_updatePeriodically()&lt;/div&gt;&lt;/div&gt;" style="rounded=1;whiteSpace=wrap;html=1;fillColor=#f8cecc;strokeColor=#b85450;fontColor=default;" parent="1" vertex="1">
                    <mxGeometry x="460" y="400" width="270" height="60" as="geometry"/>
                </mxCell>
                <mxCell id="6" value="&lt;div style=&quot;background-color: rgb(255, 255, 255); font-family: &amp;quot;Droid Sans Mono&amp;quot;, &amp;quot;monospace&amp;quot;, monospace; font-size: 14px; line-height: 19px;&quot;&gt;&lt;div style=&quot;line-height: 19px;&quot;&gt;&lt;div style=&quot;line-height: 19px;&quot;&gt;f8_calcSunXY(minutes)&lt;/div&gt;&lt;/div&gt;&lt;/div&gt;" style="rounded=1;whiteSpace=wrap;html=1;fillColor=#f8cecc;strokeColor=#b85450;fontColor=default;" parent="1" vertex="1">
                    <mxGeometry x="1330" y="300" width="270" height="60" as="geometry"/>
                </mxCell>
                <mxCell id="21" style="edgeStyle=orthogonalEdgeStyle;html=1;exitX=1;exitY=0.5;exitDx=0;exitDy=0;entryX=0;entryY=0.5;entryDx=0;entryDy=0;fontColor=default;" parent="1" source="7" target="6" edge="1">
                    <mxGeometry relative="1" as="geometry"/>
                </mxCell>
                <mxCell id="7" value="&lt;div style=&quot;background-color: rgb(255, 255, 255); font-family: &amp;quot;Droid Sans Mono&amp;quot;, &amp;quot;monospace&amp;quot;, monospace; font-size: 14px; line-height: 19px;&quot;&gt;&lt;div style=&quot;line-height: 19px;&quot;&gt;&lt;div style=&quot;line-height: 19px;&quot;&gt;&lt;div style=&quot;line-height: 19px;&quot;&gt;f4_updateSunXY(nowMinutes)&lt;/div&gt;&lt;/div&gt;&lt;/div&gt;&lt;/div&gt;" style="rounded=1;whiteSpace=wrap;html=1;fillColor=#f8cecc;strokeColor=#b85450;fontColor=default;" parent="1" vertex="1">
                    <mxGeometry x="827" y="460" width="270" height="60" as="geometry"/>
                </mxCell>
                <mxCell id="8" value="&lt;div style=&quot;background-color: rgb(255, 255, 255); font-family: &amp;quot;Droid Sans Mono&amp;quot;, &amp;quot;monospace&amp;quot;, monospace; font-size: 14px; line-height: 19px;&quot;&gt;&lt;div style=&quot;line-height: 19px;&quot;&gt;&lt;div style=&quot;line-height: 19px;&quot;&gt;&lt;div style=&quot;line-height: 19px;&quot;&gt;&lt;div style=&quot;line-height: 19px;&quot;&gt;f5_cvtHhmmToMinutes(HHMM_str)&lt;/div&gt;&lt;div style=&quot;line-height: 19px;&quot;&gt;almost everyone calls it.&lt;/div&gt;&lt;/div&gt;&lt;/div&gt;&lt;/div&gt;&lt;/div&gt;" style="rounded=1;whiteSpace=wrap;html=1;fillColor=#f8cecc;strokeColor=#b85450;fontColor=default;" parent="1" vertex="1">
                    <mxGeometry x="1330" y="400" width="270" height="60" as="geometry"/>
                </mxCell>
                <mxCell id="28" style="edgeStyle=orthogonalEdgeStyle;html=1;exitX=1;exitY=0.5;exitDx=0;exitDy=0;entryX=0;entryY=0.5;entryDx=0;entryDy=0;fontColor=default;" parent="1" source="9" target="25" edge="1">
                    <mxGeometry relative="1" as="geometry"/>
                </mxCell>
                <mxCell id="9" value="&lt;div style=&quot;background-color: rgb(255, 255, 255); font-family: &amp;quot;Droid Sans Mono&amp;quot;, &amp;quot;monospace&amp;quot;, monospace; font-size: 14px; line-height: 19px;&quot;&gt;&lt;div style=&quot;line-height: 19px;&quot;&gt;&lt;div style=&quot;line-height: 19px;&quot;&gt;&lt;div style=&quot;line-height: 19px;&quot;&gt;&lt;div style=&quot;line-height: 19px;&quot;&gt;&lt;div style=&quot;line-height: 19px;&quot;&gt;f3_calcNoonShift(solar_noon)&lt;/div&gt;&lt;/div&gt;&lt;/div&gt;&lt;/div&gt;&lt;/div&gt;&lt;/div&gt;" style="rounded=1;whiteSpace=wrap;html=1;fillColor=#f8cecc;strokeColor=#b85450;fontColor=default;" parent="1" vertex="1">
                    <mxGeometry x="827" y="210" width="270" height="60" as="geometry"/>
                </mxCell>
                <mxCell id="22" style="edgeStyle=orthogonalEdgeStyle;html=1;exitX=1;exitY=0.5;exitDx=0;exitDy=0;fontColor=default;" parent="1" source="10" target="6" edge="1">
                    <mxGeometry relative="1" as="geometry"/>
                </mxCell>
                <mxCell id="10" value="&lt;div style=&quot;background-color: rgb(255, 255, 255); font-family: &amp;quot;Droid Sans Mono&amp;quot;, &amp;quot;monospace&amp;quot;, monospace; font-size: 14px; line-height: 19px;&quot;&gt;&lt;div style=&quot;line-height: 19px;&quot;&gt;&lt;div style=&quot;line-height: 19px;&quot;&gt;&lt;div style=&quot;line-height: 19px;&quot;&gt;&lt;div style=&quot;line-height: 19px;&quot;&gt;&lt;div style=&quot;line-height: 19px;&quot;&gt;&lt;div style=&quot;line-height: 19px;&quot;&gt;f2_generateSunPath()&lt;/div&gt;&lt;/div&gt;&lt;/div&gt;&lt;/div&gt;&lt;/div&gt;&lt;/div&gt;&lt;/div&gt;" style="rounded=1;whiteSpace=wrap;html=1;fillColor=#f8cecc;strokeColor=#b85450;fontColor=default;" parent="1" vertex="1">
                    <mxGeometry x="827" y="280" width="270" height="60" as="geometry"/>
                </mxCell>
                <mxCell id="23" style="edgeStyle=orthogonalEdgeStyle;html=1;fontColor=default;entryX=0;entryY=0.5;entryDx=0;entryDy=0;" parent="1" source="11" target="6" edge="1">
                    <mxGeometry relative="1" as="geometry"/>
                </mxCell>
                <mxCell id="11" value="&lt;div style=&quot;background-color: rgb(255, 255, 255); font-family: &amp;quot;Droid Sans Mono&amp;quot;, &amp;quot;monospace&amp;quot;, monospace; font-size: 14px; line-height: 19px;&quot;&gt;&lt;div style=&quot;line-height: 19px;&quot;&gt;&lt;div style=&quot;line-height: 19px;&quot;&gt;&lt;div style=&quot;line-height: 19px;&quot;&gt;&lt;div style=&quot;line-height: 19px;&quot;&gt;&lt;div style=&quot;line-height: 19px;&quot;&gt;&lt;div style=&quot;line-height: 19px;&quot;&gt;&lt;div style=&quot;line-height: 19px;&quot;&gt;f6_adjustHorizonSky(now_m)&lt;/div&gt;&lt;/div&gt;&lt;/div&gt;&lt;/div&gt;&lt;/div&gt;&lt;/div&gt;&lt;/div&gt;&lt;/div&gt;" style="rounded=1;whiteSpace=wrap;html=1;fillColor=#f8cecc;strokeColor=#b85450;fontColor=default;" parent="1" vertex="1">
                    <mxGeometry x="827" y="370" width="270" height="60" as="geometry"/>
                </mxCell>
                <mxCell id="12" value="&quot;DOMContentLoaded&quot;" style="swimlane;fontColor=default;rounded=1;" parent="1" vertex="1">
                    <mxGeometry x="20" y="300" width="380" height="200" as="geometry"/>
                </mxCell>
                <mxCell id="4" value="&lt;div style=&quot;background-color: rgb(255, 255, 255); font-family: &amp;quot;Droid Sans Mono&amp;quot;, &amp;quot;monospace&amp;quot;, monospace; font-size: 14px; line-height: 19px;&quot;&gt;f1_fetchSunData()&lt;/div&gt;" style="rounded=1;whiteSpace=wrap;html=1;fillColor=#f8cecc;strokeColor=#b85450;fontColor=default;" parent="12" vertex="1">
                    <mxGeometry x="10" y="30" width="270" height="60" as="geometry"/>
                </mxCell>
                <mxCell id="14" style="edgeStyle=none;html=1;exitX=1;exitY=0.5;exitDx=0;exitDy=0;entryX=0;entryY=0.5;entryDx=0;entryDy=0;fontColor=default;" parent="1" source="13" target="5" edge="1">
                    <mxGeometry relative="1" as="geometry"/>
                </mxCell>
                <mxCell id="13" value="&lt;div style=&quot;background-color: rgb(255, 255, 255); font-family: &amp;quot;Droid Sans Mono&amp;quot;, &amp;quot;monospace&amp;quot;, monospace; font-size: 14px; line-height: 19px;&quot;&gt;setInterval(f7_updatePeriodically, &lt;span style=&quot;color: #098658;&quot;&gt;5000&lt;/span&gt;)&lt;/div&gt;" style="whiteSpace=wrap;html=1;fillColor=#ffe6cc;strokeColor=#d79b00;rounded=1;" parent="1" vertex="1">
                    <mxGeometry x="30" y="400" width="360" height="60" as="geometry"/>
                </mxCell>
                <mxCell id="16" style="edgeStyle=orthogonalEdgeStyle;html=1;entryX=0;entryY=0.5;entryDx=0;entryDy=0;fontColor=default;" parent="1" source="4" target="9" edge="1">
                    <mxGeometry relative="1" as="geometry"/>
                </mxCell>
                <mxCell id="17" style="edgeStyle=orthogonalEdgeStyle;html=1;exitX=1;exitY=0.5;exitDx=0;exitDy=0;entryX=0;entryY=0.5;entryDx=0;entryDy=0;fontColor=default;" parent="1" source="4" target="10" edge="1">
                    <mxGeometry relative="1" as="geometry"/>
                </mxCell>
                <mxCell id="32" style="edgeStyle=orthogonalEdgeStyle;html=1;exitX=1;exitY=0.5;exitDx=0;exitDy=0;entryX=0.75;entryY=0;entryDx=0;entryDy=0;dashed=1;strokeWidth=2;fontColor=default;strokeColor=#006EAF;fillColor=#1ba1e2;" parent="1" source="24" target="6" edge="1">
                    <mxGeometry relative="1" as="geometry">
                        <Array as="points">
                            <mxPoint x="1028" y="81"/>
                            <mxPoint x="1533" y="81"/>
                        </Array>
                    </mxGeometry>
                </mxCell>
                <mxCell id="24" value="&lt;div style=&quot;font-family: &amp;quot;Droid Sans Mono&amp;quot;, &amp;quot;monospace&amp;quot;, monospace; font-size: 14px; line-height: 19px;&quot;&gt;g_sunData = {};&lt;/div&gt;" style="rounded=1;whiteSpace=wrap;html=1;fillColor=#dae8fc;strokeColor=#6c8ebf;" parent="1" vertex="1">
                    <mxGeometry x="825" y="132" width="203" height="50" as="geometry"/>
                </mxCell>
                <mxCell id="30" style="edgeStyle=orthogonalEdgeStyle;html=1;exitX=0.5;exitY=1;exitDx=0;exitDy=0;fontColor=default;fillColor=#1ba1e2;strokeColor=#006EAF;strokeWidth=2;entryX=1;entryY=0.25;entryDx=0;entryDy=0;dashed=1;" parent="1" source="25" target="11" edge="1">
                    <mxGeometry relative="1" as="geometry">
                        <Array as="points">
                            <mxPoint x="1191" y="182"/>
                            <mxPoint x="1191" y="385"/>
                        </Array>
                    </mxGeometry>
                </mxCell>
                <mxCell id="25" value="&lt;div style=&quot;font-family: &amp;quot;Droid Sans Mono&amp;quot;, &amp;quot;monospace&amp;quot;, monospace; font-size: 14px; line-height: 19px;&quot;&gt;&lt;div style=&quot;line-height: 19px;&quot;&gt;g_noonShift = &lt;span style=&quot;color: #098658;&quot;&gt;0&lt;/span&gt;;&lt;/div&gt;&lt;/div&gt;" style="rounded=1;whiteSpace=wrap;html=1;fillColor=#dae8fc;strokeColor=#6c8ebf;" parent="1" vertex="1">
                    <mxGeometry x="1186" y="132" width="203" height="50" as="geometry"/>
                </mxCell>
                <mxCell id="26" style="edgeStyle=orthogonalEdgeStyle;html=1;entryX=0;entryY=0.5;entryDx=0;entryDy=0;fontColor=default;" parent="1" source="4" target="24" edge="1">
                    <mxGeometry relative="1" as="geometry"/>
                </mxCell>
                <mxCell id="27" value="fentch(&quot;/sun-data&quot;)" style="text;html=1;align=center;verticalAlign=middle;resizable=0;points=[];autosize=1;strokeColor=none;fillColor=none;fontColor=default;rounded=1;" parent="1" vertex="1">
                    <mxGeometry x="638" y="132" width="117" height="26" as="geometry"/>
                </mxCell>
                <mxCell id="29" value="write for each day" style="text;html=1;align=center;verticalAlign=middle;resizable=0;points=[];autosize=1;strokeColor=none;fillColor=none;fontColor=default;rounded=1;" parent="1" vertex="1">
                    <mxGeometry x="1058" y="174" width="113" height="26" as="geometry"/>
                </mxCell>
                <mxCell id="31" value="used in" style="text;html=1;align=center;verticalAlign=middle;resizable=0;points=[];autosize=1;strokeColor=none;fillColor=none;fontColor=default;rounded=1;" parent="1" vertex="1">
                    <mxGeometry x="1190" y="225" width="57" height="26" as="geometry"/>
                </mxCell>
                <mxCell id="33" value="" style="shape=image;verticalLabelPosition=bottom;labelBackgroundColor=default;verticalAlign=top;aspect=fixed;imageAspect=0;image=data:image/png,iVBORw0KGgoAAAANSUhEUgAABZMAAAKNCAYAAABV8fWVAAAABHNCSVQICAgIfAhkiAAAABl0RVh0U29mdHdhcmUAZ25vbWUtc2NyZWVuc2hvdO8Dvz4AAAApdEVYdENyZWF0aW9uIFRpbWUAVGh1IDA2IEZlYiAyMDI1IDAxOjI5OjUzIFBNf416YgAAIABJREFUeJzs3X1sG3ee5/lPlR9Ix3HIPFJ5MpV0ImZ6OtLMzUTa+SPS7i0s3z/SLW5bWmAReQd3lg8DiMDuRAYOsHIHnGXcAJbvAdI/a/mwd5ZxwEo54Eb650wDi7Vy2IOUw2xT6Yehku4mne6Y6qQTMp3EpB+q7o8qklUlSiXb8oOc96vbKLFEFatIyuj+8OvPz6hWq7YAAAAAAAAAANiE+aBPAAAAAAAAAADw8CNMBgAAAAAAAACEIkwGAAAAAAAAAIQiTAYAAAAAAAAAhCJMBgAAAAAAAACEIkwGAAAAAAAAAIQiTAYAAAAAAAAAhCJMBgAAAAAAAACEIkwGAAAAAAAAAIQiTAYAAAAAAAAAhCJMBgAAAAAAAACEIkwGAAAAAAAAAIQiTAYAAAAAAAAAhCJMBgAAAAAAAACEIkwGAAAAAAAAAIQiTAYAAAAAAAAAhCJMBgAAAAAAAACE2v2gTwAAAAAPi5LyuTVVfftiSqZaFH1AZwQAAADg4WFUq1X7QZ8EAADA9qqoVCyqVK46wWgkoli8RS1xItFN5Sf1dvuolr1pcqRPc797X/08dQ+dSqmoUqmssvt6RSIxxVtaxNscAAAA9wqTyQAA4BFQUf7yrObm5jV/eVnZ1eB0rSuSUFtHhzo6ezV4ZEj9HfH7faLYcSrKXzyv6bkFLWZzKqyVVFFU8VhSqY5O9Q4e0VB/h+7LO6mY1fzcec1mFrW8lFOh3PRdrliyXR3tXertH9DAYI9aCZcBAACwTZhMBgAAO1pp6axGR8Y0s1K+zZ+MqW3gPZ2bSquLTNnBZLJfaUmnh4Z0MlNo/uGEK9E5oqmZM+pvvUfnUcnr4sm00pMZFTY7kSYiiW4NT03rVH8rVSUPUGnpvGaW3b+jEp0aGuy6Px9AAAAAbDPCZAAAsGMVL46ob2BaK7cZsHlF2ke1cOmUekh2pNJFnR6dU867L9qp9NQxdTyoc3pgcjp76G2lF7f2IUWkfUSXPjijru1ObCtZnR3oUzqzdhcHSapvOqP3j7Ru11nhthR19lCb0ovOX1SRznF9+MFxpR7wWQEAANwJwmQAALAzFc/rx53DWmiWsUUSau/oUDIZU1RSpVxQLpvV6lrz1Dk5nNHKVA+Tm6irXDyqtv4ZNd5eCXWPjGt0sEMt0ZJysxMa800KR9Q9uapLx1q28yy09O5bOjS12mQyOqJYW4c6WhNKxKJSpay1Qk7ZlYKaxt+xbk0uX9Kx1m08PWxN/qwOtae1WOu2JkwGAAA7GJ3JAABgR8pOnl4fJEeS6js1rYnhZj2xJWVnxzQyMq3lQNpWOD+u82M92tYcEDva0lxG3rdX2/CMFs40PnDo6OhSsvKWuqdW3T1VLWUWVTk2uH0fSpTmdXpmfZAc6xzW1NS4Bpt0flfylzU9OqwTC4FqjvKiJiYu6wgfmtx3+YU5Ld3Fv54AAAB4mJgP+gQAAABuX06ZxcK6vW3D07qQ3mjBsbg6Bqe0MDOsZPBb1SXNzRfvwXnevUopr1wup1wur1Jl2w6qfC6nXK6o7Tqke2AV83nlclllcznli6XtOX6l5Bw3n1dx256EzRRVWCt5bifVMxAMYaPq6OlQxLurXFJJ26eyNK91LRuRXo3PTTUNkiUp2tqj9PsLOtUdW/e9QmZOS9t4ftunomI+p1wup3zx7l7fSqmofC6nbDarXG773i+VYlH5fE75fPE2fw/zWphd2rRzGwAAYCdhMhkAAOxARRXWrUQWUUdPV+jUZfzwqEa75zVRTCrZmlSyLalUKqXUurLbrE73HdWsN2OOJnXk3PtKb/Tv04uzOjpwWllv2BTt1vilMzrsO3xJ8yN9OrnkuWM0pfTMBTm1tiUtnT+p8ck5XV5ZawRRkZjaegaVHhvTsa4Nxqgrl/XuoVEtes+h5YjOLaTVoZIunz6qkZMLWnUP2j66rA9PdWx6/hOXzqhnoye2lNXs9KRmZhe11KxiIZJQW1e3egeGlT6yUdDf5DLyl3V+clpzmUUtra75wrhIrE1dvf0aSqd1ZKPnYZtFmpx3binnO69oomVbF1UrFtbWhfGRVLd6Qi85peGxQZ0dyiiaTCmZTCrZkVIq2a5kRfL+kpTmR9R3csn3ONGucS1MHd7wWpZOH9LIrDc2jyo5fE7vHwv8YmRPq+/orHy/Qt0TuuROeFfyFzU5Nq7p+WXfwoKRZKf6h4/rvXS/UqHvl4ryF89rcmZOmcWlplU2sWS7unoHNTw8rP4NQvj1SsrOTmtyZlaLSysq+N7YESXbe9R7ZFjp4WbnWNTs0QGdzlYklVUIlLpXs5P68Vuz7ssQVcuRKS2kv3+t5AAAYGciTAYAADtQpenEa7lUkhSWtLXq2KUrOhb6GCUVcita8Q1AV5TfbPS0UlIhu+JfEDCSbNphWylmteK7Y1nZgqSWnM6+06fRYE2BJFXLWs1MK305o8zUgt4/0iTVjlZUzq1oxfughSUVKmlFpwc0MLboOx/f81hZU26L5y9VlJsd1Tsj0/7HWnfOa1pdnNPq4pymJ/p0auac0l2bBXpFXT49rOGTGa37vKB2yPKqFucmtDg3rcnhc5qb6lfrJke8fXElElGp/goUtZorSp7gunj5XR2dXPH8TEK9g93bWyHR5Pqr5aKKUmjfbrRnSh9dCX+ISjGn7MqKP6xv2Xyxv0ohp5WVtcC+Zr+RJeVXVrTq2RNpKagkKXrxXfUNTa2rnJGkamFZc2MDysyPaG7hzMaLY5Yu6/TQsE5mmvyueJQLK8pMrygzfVqdw+c0E/J+qeRmNfrOiKY3fGNXVVjJaHo0o/OTvTo1MxN4T1e0lgv+fnt/fE2rnuevnL8f0/YAAADbg5oLAACwA7UolQjuq+ry6TE9pG0VAXFFm3Q6lytFXRz9sdLNgmSvakELI+/odLbZN6OKBcO3SkWlwqxOnFzcIBi+fcX5o+obCgmSA6qFBY32DWgyu1F4VtTFkUPqG9s4SPYra2V6QL3vzGt7X/aoOrq7PBUWVS3NZZzHKGU1++4hdfdN+UL3RO+4xvu3cy5Zakkm1ofThRmNn85ucz3JPRKNKxoJ7CuVVc6d1cAGQbJXeXlKQyMbvLaVrE73DWgsJEgOHFHL0++o9+jG75dK7qwGDg1tEiT7VQsZjfb1uVPIAAAAjz7CZAAAsAN1qLN7XfOxqqszGmh/S++cntXl3Ha2126/yLo0uaK1hTGNTjtznLFkp3r7+tTbmdT69ltJ1RWdPj3fpKM3KgUDPJWVPTupzHYlyZXLGh+dk29oO5JU99C4pmfmlcksajGT0dz0hEZ6k4Fe4UWdGJ1Wvslh8+dHNDwdWHAu0qaB8Tkt5gpaK+S0PD+poXb/M1KYO6qR89sbJ7f09qnLc+Lly6c1crRPb7Z1amhq0Rd2J7rHNTdzZJuno6VoZ6/vHNwz0eLY22rve1dnL2Z1lxXD91Ykui4Mr5aymhwZc7qgIwm1d/eqr7db7Yl1FypJWps/qZnc+v3586M6GUijY219GpmY1tx8RouLGWXmZzQ5OqBO3wdPVRVmRjV+sckTV1nSiXdGlQkMZie6RzSdWVFhbU2FlUXNjPYq6T3d8rJOvnNCjdaaqNq6+zUwMKC+7uT6X8dYu3r7BjQw4Pzp3XRSHwAA4OFCzQUAANiReo6l1Tk9quXgWGJ5RXNjQ5obcwLZrs5OdXd3qbOrW10dLdtbQ7CtqspMz0hKqm9yTueOddQ7a0tLkxoaWB9ylTOzWqz0qz/soqpZzcyUVVVMncPjGhvqUSoRUbVcUDG6PpQPtTSvTGD9w/b35nTpeLD3tUf9RwbU806nBuYaJ19dPK/pbFqnvHevXNT4+IL8l5jQwLlLujDYqJeItxzTua6UYm/3aapW/KyyFsZP6/LgJt3Ot6tlUMO9Y1pccAPL6qoWZlb994kk1fvepKaPHw4tV7mzc+jXyOC4MjPBxSarKmSmlM5MKR1JqK2rUz2dPers7lRXV4dS8Yf3Xa7VGU2vSrHOEc3MnNLhWol2Ja/5kT69MxP4MKGa0+x8TsePe4s9ilpcCCxqFxvQ1AcXNBjIZXsOD+rIYIcOvT3m+buioNmZeY0fHvT1QuenxzQdqKaIdI5qYeGUOmpPabxLg6cW1JnsU2c6U5/0r65Oa/z8cS0ca5HUosOnLuiwJF0+qoO9M773dSQ1qIn3j4dWlQAAADyMCJMBAMDOlErr3ERGh9IZbdTwWi4sK1NYVmZuytkRS6qzu1vdvQMa7D+sjvuzdtttiKh9dEYXjnX4Qu94V1qTYxlfeCVJKme1lJP6Axnu+iixrHI5os7xS7p03Hvs1jsKtEprhUBNQETJ5EahdIv635vQaCKreGtSiURSyWSLkoEHLs1Paz6QmUba03pvsMmLFO/R8eO9mhleaDwfhTnNXD6lnsPbEaRWlJuf1myTiVhHQu0DxzU+PtwIQ++JuA5PTGo4O7Au5Kyrrml1cUGriwuanpCkiBJtXeru7Vd/f5/6e1ofvg9QEn2amjujw96XNtqq/qkpDS/1asqX2VeVW8qqopTnOtaUyweej0RSqQ0GfKMdwxo/VVSm0qpkIqGWREKJ1lTgeclq+vxioDIjof7jxxtBskfrsTENTWY851rV5Zk55Y6lCYkBAMAjjZoLAACwY6WOzenSzIg6N/gn8uuUC1pemNFEul+dbQf19tFJXXyYFr+K9er48a6m4V/r4ECTyoM1rW213aFtWOPpjm0JFqPrKjqqypwe0/xGz2VqUKfOnNLx9DEdGTysnq4O+TPYipbm1/c5J7u7NwzmWnp71eF7Pta0uLB0G1exgfxFnehr11sDY1pYXd8LEmkb0szKqj68kF4fJOfO6p2+ozpx/qK2rWUlflhTly5poq+ted3JOlWtrS5qbmpUQ70pHXyzT++ezzapQ3lw2ofeU7PPCBTt0WBvkw8l1tYCH15EtW74enVGJyeXNrjOuHrSZ3TqeFrHjgyq/3CPulKBf6WQW9Ri8MODSId6uzeqoOhSf4//XKvZeV3eEZ3tAAAAd44wGQAA7GBRpQbP6IPVFc1Pjqivs0k/6Uaqa1qeGVV/5yG9e/HhSIAiXf3q3Si7iqfUti5nq6iyxdXHkr2D21YBEU11BYJcqboyrYHUQb156McaOTGp2YtLym85wcxpJRcMbiOKR6V8Pt/8TzmqROB6itmVpl3MW1VamtSh7n5NbLKoW7WQU6HS/InMZ2Y0n5nRxHC/2hPP6a13L2/PQnnxLqXf/0gryzMaH+pWW2zL73KVVzOaGn5bnT8+q9xD8blJm7qDo/QeqY7U+t/hSiXweiTV3hFcgXNNC6PdOnjwLfUdfVenz87rcra45ee/kltSLviix2OKrm3w/svnpVjMf67VrJZZiA8AADziqLkAAAA7X7RVh4+d0eFjZ1Qp5rS0eFmZxUUtLy0ru1JYN/HqU17W1NCQWj+4pPQD/vfpLW0pbbwUV1wt8Yi0Ycy5mYhSHdt4cakBpXtPa2ghWDBSXl+50N6l7u5+9Q/2qb9ro8qFonLBWmBVtTzRrdTE1k+rWsipIN3ZQnj58xoaGNVi4JIiiXalojmt1Fbcqy7r9Oik+i8F6wxympvNel6diuKpYJXC3WnpGNTxc4M6rpLyS0taXM5oMbOspWxWq2ubvS+qKiyk1TeS1PK5w5u8x+6DSKs2eyvGEzFFFfYuj6pneEjtsxMKtn9U11aUmVlRZsaptonEkuqoVdsMHlbHBhdfLBTWB89rcxpqn9v0TPwqKhSKusN3IAAAwI7AZDIAAHikRFtS6hk8plNTF3Tpw1X9rlzQSmZGk6ND6m3boCigvKiTJ2YfeBVAbF19hFfkLoLJqBKJ7YwQWzR4bloj7WHFC1WtrbiVC90pHXzzxzp9Mb/+bpWqStsx0Fkqau2OjlPU+XRwgcOIkn2T+mDlQ30wfUTeofDy4gkdPZ31h49L53XeuxpkpEdD/feqlDuu1q7DOpI+o3MLH+ijK19rLbeo+elxjfR1aqPWl8LMqE5n79EpbVlEm77Nt/guj3a9pwsTfUqGDGlXvdU2B9t0aOS8sk1+0cvF4PTznaiqWNj0oysAAIAdjzAZAAA82qItSvUM6tipc1r46IpWZobV2SQDLWdmlXnQafI9Ew0J8O5A/LDOfLCsufE+tW+xs7q8uqCx/m71nQ0EsdtTBiGpqsqdHCo7qcmMPwSMdZ/SwvvH1BGXoj3jmhjwxslVLZ88qhOXa2+YkuYnZ+RdNy7RP6x7liU3EW/t0uEjx3Xm/Q90ZTWjib5mlS+rmp/dhl7pu7Q9b8WoUsfe1/KlSQ13b7HeplrQ4vSw3n57RPeq2aZ6R29AAACAnYOaCwAA8D0SVWpwSgvRktoH5uQbRK2uaCknDXZt9vMhs4vV8rbFojtCtFX9x99X//GScpczysxnlFle0lJ2VeUNn6o1ZUaP6mTXhzpVq86NxpwF1Xw/E1Hv5IpmBm9nojqq+B0MYOcXF+Vfey2h/tFhT41FXP1TExpaHtBMrY6juqKp4RF1ZS6ov3xaJ+e976Y2DaR7H1ydREuP0u8vqPL2Wxpb9r8QhZWcSuq6q3Mrb8sY+faIdx3T1KVjmsgvKZNZVGYxo6XFJa1sUvtRXZ3W8Gi3li8Mqpb3x1qiWlcikxzW/OK4um4n/Y4+0BIRAACAe44wGQAA7FAVFXM55XI55QolpYaOqWeLOU68d1DdsTnN+YZRKyqHTiaH3KdYUOHu/638DhRXqmdQqZ5BpSWpUlI+u6Tl5YzmZxc0vxxY0K66ornpyzo11ePuaFEiKWnFf9RKVYrfSTp8mwq5tUCO3aHujkCCGO/XxPSwlvqmtVq7c2FORwek/ui8r7s31ntcx28rgdxYpZRXIZdTNreqtXiv0v1b7b5Oqb8/pZPLK/5rq5RVkjYPkze9T17FO+sSuaeirV3qP9al/mPHJcnpTl9e0nJmTudnM1oNtE+szU9rvjioY26a3JIILugnqVJRtCX+YDumAQAAHjLUXAAAgJ2ldFEjb7XpuSdiSrZ3qndgSOnRUY3N5G/jIJUmdQhRxeL+2+v/6XxJhcLGj7M0f1nBJem+l6JOp+9g+owufLCiDyf7FIzqirmcGk0DKXWlgt0jVeWyuQc06d3s/SHFeyZ04b1O3/uiujKnOV9XcpuGxxoTr3cqO9mnNw8+oVgipfbufg0Nj2p09LQu3kYVS6XUZJY+GvPVTESb9J9Uc85Chk2VFpXJPvyfmERbUurpP6LjUwv6aCWjkfbAb3M1pxXPOHo01aV1MX0pp5X8PT5RAACAHYYwGQAA7CzxVqWixUCNQlXLp9M6m9ta9JifndFiMA+LpNThrcVVXK3ruoCrWlrIqGndamlek3Orzb7z6HEnjy/On9fZ0yd09vJmCWdUqWNp9QbT5ErVExRH1dnbtS68X1tc0NJGL2kpq/nZWc1fvKylbE75YvGOF/FrSSX8j13NKrPc7Jqi6jg+o3O+/mS/5JGpbZlKTrUlVA5WNRRmNTp2cWsLRVYu6/z8yrrdLW0pX9AdTcTWdxivZTR/ufmTmZ2eVOYhWGOuVMwpe3les2cndeLEbKCmJKClR+nh4Psr8IFBR6e6gy9rNav5TH7Dw+Yvz2p2/qIuX15SNpdXcYtvwGql9P2qwwEAAI8UwmQAALDDpDSQ7tW6NfTWMkq/fUhHz15WfqO0rZTT/Okfq28ko2AeFunqU7dvnDSptlSTqc3MhEZn84HjZjU5NKK578NYcmlWPz6YUKqzW/0Dw0qPTWh0bFrZzdKxfE6FwGsSTSZ9oWZL75B6gy9q4bzGTgYX65OkirKnj+qdoSEN9Pequ7NdqWRSb5/M3tElpTo7A5PEZS2MjWq+6acGrRocH1V3k0UcJamSy2gpf/dRYfTwsIbagnurWp0eUOePT2g+W9wgkKyouHReI4eGNLXus42kevs7fHuiqS6l1o3gFzQ9dlJLgdesOD+id06uhDWH33PZE28qkWxXZ++AhtKjmpgY1cnZzVbUq6iwEqhaUVKpVu/tHh0ZCD7hVS1OjKnpoYuzGh0a0tBAv3p7u9XZnlKy7Z0m923ywUJuRdl7tAAgAADAvUZnMgAA2HFaBk9pfHpR6cVAJFxe1ky6VzOjMSVTKSVb4opFIlK1rLV8TrnVtXUhsiS3muCIWn07o+rq71VsZi7wMwXNDXUqO9Ov3vaUouWsFufntbxWVay7T125BWWCoXJFTTOlHSneqyP9CS3MNC6yujymvr6ixkcH1dWRUiIeVVQVlYoF5ZYzmj55OjAJnlDvYLf/KWnp13vD7cpMeMPKqpYnDunQ2rjG0r3qSERVWctp8fy4xqYCoWZiQO+l/UHplnUd03DntH+xusKMBjoLGj6e1kB3u5IxqbqW09L8jCZn5rSywXTu2uKE+tun1dbVrY5kXCqtaS05qktnepr/wMYnpeNTw5rvnZY/E66qsDChgYUJRRJtSqVa1RKLKKKqquWictmcChusfhjrHdVoT+CN2Nqt/pS0HBhiri5P6FDnovr7utURrSi3ktF8ZlVlJdXXl1BmYTnQxXz/Zm07jhxR5+SYGi/XmuZG+qTCcQ33diqVbFE8KlUqJa3lsro8O6HxaX9xR6R9UL2BXouO9HvqmxnSgvf3tzCno90VZcfTOtKdUkxlFZYzmjxxwn8/RdR+/D31B/tN4jElpMBinxmNDb0rjQ4qFS1prdKi3sMdj8xfEQAA4NFGmAwAAHaglI7NzCjXN6SpZqletazCyrIK6/+VfxMJdZ+6oFPBkE1SvDetobZ5Ta0Gw7myVjMzWs14dkU6dXwireLAgjK++1YfsX/SHlf/+IT6Mv7QbW1xSsOLU1s6QqJ3TOP9wWXNoup475xOLR/SqO9DgrKWZ9Lqn9nkgJE2DU1PaPCOi4pTSk+9p/lDY1r2PvTaoqZHFzV9u4erlrW6uFAPgSMDw3d0VvGeCb0/WdChdKZpF3d1bVUra6vBdQubirQN6dz0scAHJpLUoaF0n04PL6z7oKVaWNbc1LLmPPuSAxM61TutzELgvls4h22TSmsiPatD3g8eyiuaGxvS3NgWfj7SpuGJYa376KFlUFNTGeXemZH3V75aWNDE0IImNjlkrPuUzqWbBMKpbnUkJrQSeAG9vy+R7gmtHO5o8toAAAA8fKi5AAAAO1PLYZ25dEnTQ53rFnfbqkiyWyNzi1poFgJJUrRLp869p84NKg0aB2rTwLkZHe9oUUss2BnQfDG3Ha1lUBcWJtWXXL9E4eYiauub1MJcs1BTUrRD6bkFTfQmmyx+uIFYp0YuLOjc4btb8i7acVwLC+PqvZ1rirSpbyKjlcVJDbTd7nOxpbNS6tiCludHb++8fGJqH5jUpQ/OrZ+adbUcmdK5gfDnPNY9rplz/UrG1/9CVKr3800eVdepBc2NdK6vuwmT6NTI3CWd6Ql+mOFo6T+nhQvD4b/zdREl+yZ0aS6tjmZ/iUQPK53u3Pr7GQAA4CFHmAwAAHaueIeOnPtAKyvzmhwZUHdbIjy0iSXV3juk8emMVlYu6Ux/66b/vDzadVyXPpjRSG9bk+AqomT3kCYvfaALg62SYoqty6hKKj8EC5Ztt2jHMb2/8qHmJ4bV2x7yvEeS6uwb0WRmRR++f6x56FYT71J6YUUfzo1rqDu5YVgYSbSrb2Raiysf6Ex/6x1fh/+hj2th+UPNjQ+puy224TXFkp0aGJ3R4uqHej/do1TXMV34aFWLM6Ma6G5T8POEeJPw9Xa0HD6lhdVVLc6Ma7ivU8nQw0WUaOvWwMiE5pZX9eGFY+pqnp3WHkH9Fxa1MDGgznWLTkqKtalvdE7LC8fVFZWisbiCuXSpVL7PE/gtOnzmA60sTmt0oFttmz4nEcXaujU0PqPllQ90JuSDh9b+KX2wsqjJkT61N3s+JEkxtXUPaXzuQ628n1bHJs9vx/E5zY32qvnnATElk0kqLgAAwI5hVKtV+0GfBAAAwLapFJXPFVQollSullWpRBWNRhSLxdWSTCnZGr/j4KZSzCmbzWmtKikSU7KjSx0txECSpFJRuVxO+VJZ1XJFlWhUsUhM8daUUqkWbZplbnrcvLK5goprZZUlxSIxtaQ6lLqL13GrKsWccrm8CmWnqiQWS6gl1RH+mldKKhbXtFauKJpIKbXt75GKSvmCcoWiSuWyqhXP893SomQypZY7f8KVz2aVK5RVVUSxREodXa13/vrdNxWV8jnlCkWtlauqVCqKRmOKJVqUTKXUGr/j33oVcznl8gU5VdQRxRKtSnWkdNsva6WobDar4pqkSFTxlqRSqVbd8akBAAA8AITJAAAAAAAAAIBQ1FwAAAAAAAAAAEIRJgMAAAAAAAAAQhEmAwAAAAAAAABCESYDAAAAAAAAAEIRJgMAAAAAAAAAQhEmAwAAAAAAAABCESYDAAAAAAAAAEIRJgMAAAAAAAAAQhEmAwAAAAAAAABCESYDAAAAAAAAAEIRJgMAAAAAAAAAQhEmAwAAAAAAAABCESYDAAAAAAAAAEIRJgMAAAAAAAAAQhEmAwAAAAAAAABCESYDAAAAAAAAAEIRJgMAAAAAAAAAQhEmAwAAAAAAAABCESYDAAAAAAAAAEIRJgMAAAAAAAAAQhEmAwAAAAAAAABCESYDAAAAAAAAAEIRJgMAAAAAAAAAQhEmAwAAAAAAAABCESYDAAAAAAAAAEIRJgMAAAAAAAAAQhEmAwAAAAAAAABCESYDAAAAAAAAAEIRJgMAAAAAAAAAQhEmAwAAAAAAAABCESYDAAAAAAAAAEIRJgMAAAAAAAAAQhEmAwAAAAAAAABCESYDAAAAAAAAAEIRJgMAAAAAAAAAQhEmAwAAAAAAAABCESYDAAAAAAAAAEIRJgMAAAAAAAAAQu1+UA/8xj8elmHYD+rhAeCRETe+VmzXt5Kkz24+rRva+4DPCAB2tudaDGOYAAAgAElEQVTML7TPvCHblq7cev5Bnw4A7Hgv7Spql2Grau1R0XrmQZ8OADwSPsueUPnzV+774zKZDAAAAAAAAAAIRZgMAAAAAAAAAAhFmAwAAAAAAAAACEWYDAAAAAAAAAAIRZgMAAAAAAAAAAhFmAwAAAAAAAAACEWYDAAAAAAAAAAIRZgMAAAAAAAAAAhFmAwAAAAAAAAACEWYDAAAAAAAAAAIRZgMAAAAAAAAAAhFmAwAAAAAAAAACEWYDAAAAAAAAAAIRZgMAAAAAAAAAAhFmAwAAAAAAAAACEWYDAAAAAAAAAAIRZgMAAAAAAAAAAhFmAwAAAAAAAAACEWYDAAAAAAAAAAIRZgMAAAAAAAAAAhFmAwAAAAAAAAACEWYDAAAAAAAAAAIRZgMAAAAAAAAAAhFmAwAAAAAAAAACEWYDAAAAAAAAAAIRZgMAAAAAAAAAAhFmAwAAAAAAAAACEWYDAAAAAAAAAAIRZgMAAAAAAAAAAhFmAwAAAAAAAAACEWYDAAAAAAAAAAIRZgMAAAAAAAAAAhFmAwAAAAAAAAACEWYDAAAAAAAAAAIRZgMAAAAAAAAAAhFmAwAAAAAAAAACEWYDAAAAAAAAAAIRZgMAAAAAAAAAAhFmAwAAAAAAAAACEWYDAAAAAAAAAAIRZgMAAAAAAAAAAhFmAwAAAAAAAAACEWYDAAAAAAAAAAIRZgMAAAAAAAAAAhFmAwAAAAAAAAACEWYDAAAAAAAAAAIRZgMAAAAAAAAAAhFmAwAAAAAAAAACEWYDAAAAAAAAAAIRZgMAAAAAAAAAAhFmAwAAAAAAAAACEWYDAAAAAAAAAAIRZgMAAAAAAAAAAhFmAwAAAAAAAAACEWYDAAAAAAAAAAIRZgMAAAAAAAAAAhFmAwAAAAAAAAACEWYDAAAAAAAAAAIRZgMAAAAAAAAAAhFmAwAAAAAAAAACEWYDAAAAAAAAAAIRZgMAAAAAAAAAAhFmAwAAAAAAAAACEWYDAAAAAAAAAAIRZgMAAAAAAAAAAhFmAwAAAAAAAAACEWYDAAAAAAAAAAIRZgMAAAAAAAAAAhFmAwAAAAAAAAACEWYDAAAAAAAAAAIRZgMAAAAAAAAAAhFmAwAAAAAAAAACEWYDAAAAAAAAAAIRZgMAAAAAAAAAAhFmAwAAAAAAAAACEWYDAAAAAAAAAAIRZgMAAAAAAAAAAhFmAwAAAAAAAAACEWYDAAAAAAAAAAIRZgMAAAAAAAAAAhFmAwAAAAAAAAACEWYDAAAAAAAAAAIRZgMAAAAAAAAAAhFmAwAAAAAAAAACEWYDAAAAAAAAAAIRZgMAAAAAAAAAAhFmAwAAAAAAAAACEWYDAAAAAAAAAAIRZgMAAAAAAAAAAhFmAwAAAAAAAAACEWYDAAAAAAAAAAIRZgMAAAAAAAAAAhFmAwAAAAAAAAACEWYDAAAAAAAAAAIRZgMAAAAAAAAAAhFmAwAAAAAAAAACEWYDAAAAAAAAAAIRZgMAAAAAAAAAAhFmAwAAAAAAAAACLX7QZ8AAAAAgJ3PMAx3K8lufGHIcG7Wdkuy3a9s2/bclmz7AZw4AAAAtowwGQAAAMBtMwxDhvOFu5XcryRT7lemGhFyjRsky/0hW7Uo2QmTbSdatkmWAQAAHjqEyQAAAAC2xJBkmLUJZEOGDLkDyfXJZBmGZNuN274g2X/bdnNm76RyfWsbst2AmWAZAADg4UCYDAAAAGBThuGExo0A2ahPIgfDZGfjLM1Sj42dfLledeHwVlu4AbLhTizbtmzblu0Jli13HwAAAB4cwmQAAAAATTkhsjdIlgzDrN+u3cfZyn9bzmSx4U4qyzTqo8i1SWQ1nUyWbNv5uhYwW7atXW6gLNt2tgAAALjvCJMBAAAA+DRCZCdINp302NnKM6msxoSy+99Gh7JzT2dj1rqTzUa3hbunETDLnUiWbMOWbbtL89mS4QbLhhsyG26gzKQyAADA/UWYDAAAAKDONN0qC9MJk2sBsmkaktzbvknl5hPKtcC4NphsGIazNQ3VMmBbjW5kw+3CsCXZlu1WY9hOsGxJtlGbVpYsW+6kskWnMgAAwH1EmAwAAACgHhwbhhskSzJN01Nx4a+8qP2MN0Q26uPJjWM2ZctXdWFLjc5k25Z21YJjdxE+w27c9kwmm7bp7LdE9QUAAMB9QJgMAAAAfM8ZhuFMJHsDZcN72199oVr1hZpNJtc6k+sHr40m+7dyJ5TN2mSxf7E9wzOJbMudTLZs2YZkWW4FsyXZMmSZlkzbkGVZ9/NpAwAA+N4hTAYAAAC+x0zTkGmY9YlkMyRI9k8qq96RXJ9Crk0oa33lRb0bubb4njwTybXKC9upvPBOItf/7HICZcN0O5NNtzfZNp1qDNOU7VZfAAAAYPsRJgMAAADfQ7VQ2AmS1ZhMbtKZ7NzXW3kRmFTW+s7k+jJ8zjp6vvqLWoBc+4ZtO63J3kX2Gh3JhhsQu7dNpzPZtOX2JUuyJNt0tzJliUAZAADgXiBMBgAAAL5n6pPHwUnk+m1/wLz+j/wdym5XcmNbf6CNT8INkJ0vbbf5olZrYdcrL2zbllXrRg50JtuW7Uw0m7Ysy5JZD5pNWZbNwnwAAADbjDAZAAAA+B7xBsfeaovahLJhmp6A2V2ET85+Z7vJYnzOF+5Wku3sd2Lj2rZWmexWW0iybefOtmW4i+0537cspztZtclkb2eyJMt0HsO0JJmmEyjLkCU3WLZEoAwAALCNCJMBAACA7xHfBLLbl2x6QuXNFuNrdCnLCY19U8qS1m3rjxrYuoGyasGxO528yw1/3UllY5ftTiKbziSyu+ieYRqybEuG7QbGbqhsyLmfLKfqwjQkSwTKAAAA24UwGQAAAPie8NVa1CeS/cGxaZqNiWRDjYnlWvWFc8Pd+juU1WTblG27a/B5ay4ai/DVgmKn6cKoTxzbchbdsyxLpuFUWZi123ImlU1Lsg1bpkxZpiXTkm4RJgMAAGwLwmQAAADge6BeZeEJkX23TacrOTiV7O1N9k8q14Jkf6hcr7nQxoGyExqrVnJR70KuLcZn2Ka7uJ47mWy6k8m1BfcMU7ZlS2ZtwtmUZTvBsWXKCZJtS6ZlyHKDccuy7vlzDAAA8KgjTAYAAAAecbVJ5NpksVHvSPYGxKZ/UjlYdeF2JZtOx4W7bUwq++sual3J3mKLBts23MnkRoBcW2zPNox6iOyEx86ksmkbsi3LnWa2ZJtOebIlObUbMmUZzoSyvLdNybZsmabTwQwAAIA7R5gMAAAAPMIMqTGJbJqNKotgb7IZrLpYHyibtcX3TP9kcmMhPn+Y7D2HYIzbmESW5C66Z8tuVF7UA2W3M9myZbsTyqZdq7hwVtmzTMmsTShbToAs76J87tYw6E8GAAC4G4TJAAAAwCPMMM1G8FsPiIMTymrSmdwIm2sTybVgWfWAuXHc9Z3J7uO7XcdO57EbLNu25E4uS7ZsS87iem5Hsm01FturdyabtQllZ9E9N0duBMruY9aDY1MyLNs5N9uWaRiy3dAaAAAAd4YwGQAAAHhE1buN3Uljw1g/eVwPjN39jWllT4+yYTjhbO3rJkFyfRE+t+7C/a/LlBpRsuoTybW+5F1uyGvbTjey6U4mm85kskzTrcKodSXbsi1LCgTKtduGaciwnMUDnS/M+qJ9MixZJMoAAAB3hDAZAAAAeETVKyok/0SyPEGwLzhW4PYGVRe+QNl0jmd6AmXPtn4uqk0iO/udLLnWi2xLhi3LlnbZhm+xPduWZDVqMmxTkmXLMk0ZbqWFZdmeAFnOmLMhWUZtvzuh7N7WLcJkAACAO0GYDAAAADyC/AFwbbE90zeB7Ftcz7u/NpHsCZQbE8nBQNk/mWx4JpPdr3ylyfUY17PYXm0RPsOdTDY9nclON7IdqLgwJcuWTMM/mWxIltGYTK5vDVOGYTkT2p4OZQAAANwewmQAAADgEeTtNJY8QW8t+PVOHKsRNBvBieRacGz6Ky5M03Qnns364yn4eM5Xkpzgt1ZYbNuS3CoLuZPIhuEJlD2dyfUqC6OxuF6tM9lJjuX+fC0wlgzLcB/O3RqN7uT6hHI9yAYAAMBWESYDAAAAjxgzMDVsuovoeast1gfHqk8r+zuVTX/VRXBKOdChrFqIXA+T5Qa3cgNlZ199ET7bdiowagGy7fysbVlOpYXtxNGWLac72bIl03IGkQ1ThmnJlCnbXaSvthKf5S4ieMtqBN22L1AWYTIAAMBtIkwGAAAAHjVuWKp6BYUnQPZVU3gDZs8ifdK6juRGoGw2JpON2iJ3tcDWCZfdU3C3boBsOkGxc9OptrCsxoSws+ieJdudZLZri+bJkGVaMt1WCsut0ahNHJtqBMfWLTWmr01Jt5z73QouGGjbbh2Hp3YDAAAAoQiTAQAAgEeIbyK5FqJ6FserTSAbbgBr1ieS5QmOTXcC2ZR3+rjZlHKz6eRaZ3J9Ntn0nKBtO4GxLRm7GgvwOX9MtzO5VnHh3rbMRqBsSrJMWUaj+7jW0+xUXDQqLUzTCaxNw9Atw9nahtMHbdiWDNOZiAYAAMDWECYDAAAAjxDvYnjB294O5VpXsuHpOjbkTCDLGzgHguRmE8uSp0rDbBzfOQE5wXGto9gwnMlkW7JVW2jP6Te2bUuGbciyLNmm4ZQjS7IMW6acANm5FttdXM/TgaxGF7IR6EiW0QiUvd9nLBkAAOD2ECYDAAAAj5DaJLLkD4z9Hcqmr/pi3eJ7tYlkT3dyoz7CGyj7J5eDE9BSbVs/u9oafE6ILNsNkT2TyZbtThw729oqfJZluQGyU7FhW5ZbsWFJhukE0bVF+LxT0rbcIFn+oNloLNpHdzIAAMDWECYDAAAAj4h6D7Jqi+G53cXutj6JrEbg7K+nCNyuVWS4wbFpNAmS11VdOD93/L/+Z2p75cWm5/nttYom/vWcPr36uWTYsixnStmSJdN0BpKdbW3i2Bsgy6m+8Eway3AqLexbtu8c5IbGtUX8GhPbtrtAoNOdTJYMAACwNYTJAAAAwCPCV1lRq7SoBb21SeTa/aRAAFz7frBzuREY+4JlT4hsehbvm/6bfxV6nvv3RfXf/cshSdLk//Z/KfuLXznTwbYTGKseKNe+cDeGs9hefULZvW0ahm7Z66svnMA50Ods24Ety/ABAABsFWEyAAAA8AipL3rnbustE8b6SeT65LL8k8u1kLgWREvBiWQFgmTpX/zTQ3q7883bPt/0X/4T3bx1S3914n+RLMmuTSC7AbJhmjJuWf5pads7PW03AnTbdq/frk8g16e1Dbt+ofXOZHdkmTgZAABga8zwuwAAAAB42BmG9483bA1M5q6rtPAsnhcImv2TyZ5F+WqVF+5E8vjof3lHQXLN7l27NP03f+1Z1M/bxSx/Z3NtMtl7/obpu9ba4n+N65RUuz41Avdg9QcAAAA2R5gMAAAAPBKMwK3gbf+sci1Yrd87EDg3Aln/xHJj0te5X/ov/4lann1yW66gESi7jx/YBoNw+bYKbJt/X779RvBpAwAAwCYIkwEAAIBHgLcjuZ6T+iaN108eewPidfdXcGI50K1sGHoh8Yw6/ujVbb2Ov3qnrz5pbBqmDDlbBc/BF3gb7v2CE8nBQDm4382SmUwGAADYEjqTAQAAgNv0dPwJPR0/oCcO7NP+fRHti+zVvmhEj+2LaF90r/ZHne2+qPO9PXt2ae+e3dqze5d2796tPbtrX+/Snt27FNm757Ye/1r1um7cuKWbt27pxo2bunHzlm7dsnTjprPv+o0bql6/qWvVG6pUr6t6/bqq12+qWr2h6o0bqly/qer166pUb+i7a1V99fU3Mtw5E28FRG1iORg0G3KqJ/77v/4X2/vESvpPfvS6rw/ZMAzJbt59rED3sbO7dtuQITswqWy7F9bYX7sfAAAAwhEmAwAAAK79+6J68ekWJZ58XLFYXH/xxEt65skn9PSTT+jp+ON6On5Azzz5xIM+TSe8jqzfH5zE3ejrWlDs3Xfjxk19e62qb69V9M21ir77rqprlev69lpFf/iuoj98U9E3167pm28rqt64oR++nrw3Fyfp5Lt/qbGJf+MLlA3bdvNjo3FbjWC4tr8WPMu26yvr+QLpJvupugAAANgawmQAAAB8L8QOPKaWZ57Uc0/H9PSTT+jJJ/br2aee0DPxJ/RU/ICefvKA9kX2PujTvCu2G5jWtl7OTVuS4eSngQB1797d2rt3t56MPd40bPZO+N64cVPJ5Mv37Dpann2qyYRx7QQa5+GfMA7srx/Ne9s7gey/X+15AwAAwMYIkwEAAPBIiOzdo+efe1LPPRXX8889qcTTMT3/3JN6/pmnlHg2vuOD4q1oNpkcuEfgfs2/3zieVAuga9+3bWnPnnv/fyP27tmjinXdnST2Txw3AnNJnonkxv3UqObwVmAoGDT79wMAAGBzhMkAAADYcZ5/7km9+lKLXnnpOb2WfF6tLyXU8kz8QZ/WA+UNhptNJns1JpjXB8qBXDZwnM2Pu50Od/+5/vbSf3BP0Gqc3wbBr3fy2Bkw9nQpW5IMQ7YvWG6wCZIBAAC2hDAZAAAAD63I3j169eWEXn25RQdfeFavJ5/Xqy+3KBq5vQXr7revv7mm7ypVXas4HcQ3btzSjZs3dfPmLd2o/blxUzdu3fJ9byv2uAv57dm9213Az7m9d+8e7d29W3v37tK+yF49Ft2rxx6LOAsDRqO+4HjjyeTm32/cz/li9+57/38j/sGfvqFffFJQ8fMv9WX5G9UXzzP8FRbexfO8HcryVFYY3ollN1j2VVwwmQwAALAlhMkAAAB4KLQ8E1fyRWfS+AcHn1fri8/qheeeetCnJUm6+vlX+n3pa/3+q2/0+VdlfVn6Rl989bW+Kn+j7yrX9e21qq5VKrpWua7rN27e9/MzJJm7TJmmqV2mKdM03G3tj6H9+6Lavy+ixx6L1L8+sP8xxQ7s14HH9+nAY/t0YP8+Hdgf1eP79+nxx6KKHdjvm1SuVV7cj+nkp+IH9E5/jySpUr2uz9a+1KfFL7T2xVf6TfFL5X+7pmAHsr3BBHO9C7l2HZYzoWx7fo44GQAAIBxhMgAAAO67V19O6LXkC3rlpef0euvz+sHLLdoXjdz38/hN8fe6+ruvtPb7r1T8vKSrn3+l3deKipg39c031/TT30f09Tff3vfzum21SeLGDk8wasuQoUrVCbrL33xXD5p37TJlGobMXaYnfDZ8Xx/Yv09Pxh5X7PHHnO2B/Xr2qbgO/8Nn7ukl3bx5qx5kRyN79OrBhF55OSHJrg8dFz77nT7JX9XHV4pa/fVv9YdvvlM9QPY9PbVE3B1YNgwnUPY8PxZRMgAAQCjCZAAAANxTiWfieu3g80q98oLeePUltb3y4n2rqSh9/a2ufv6V1r74Sp99/pXWvijp6u++0me/+1JffPV10595zvxC+8wbsm3p61vP35fzvFvO5K3RaHawA4vmNe7pK4awveXInp+zPRURztT1da19UfJNPh/+h5339JoqlUqTvf7A9+Dzz+rg88/qH/2DNyVJVz//Uqu/vqpPrlzVJ/nP9Ju13zs/ZXu7lOWrwHCOSpAMAACwFYTJAAAA2FZ//PpBtaeS+qMfvKw3Xn1JTzy+754+Xunrb3Xls8/1m7Uv9Jvi7/XbtS+19nsnNK5ev3FPH/uhYksy3a+N4DcMT6VD7W6BwLkeLMtZrM4bSHs6IGzfz9073333ne+2b1E990yCiwU+/+xTev7ZJ9X91g8l2fr6m2vK/eo3+vmvfqu//+UVfZIvNu2yoDMZAABgawiTAQAAcFdefblFf/rDV/Qnb7yqN1PJezZ1/NnvvtSnV79wg+Pf68pnn+vTq1/om++aTbB+T9m2bNmybcO96Qa/9cHjWrDcCIRtNQLiRkzrmVC2bck2ZBvuz9vO/q+/+U5PPP7Yvb4c33ZdR3Jw4jjw/QP79+nP33xdf/aj1yRJ312r6uP8Z/rZJ5/q57+8op9//Kmq1y0mkwEAALaIMBkAAAC35aWWp9XxxivqeKNVHW+0KnZg/7Yev1K9oU8KV/XLK1eV/+xz/frTNf39r36zrY/xKKpNHtdz4lqOXL9tuxPH7v0DlRje6gt/FYYbOHuCZNs2dPzUWf3r/+Ff3pNr+Xf/4Sf69//vf1TimbieefIJvZh4Ss8/+5Qie3c3DY4bTR3eio71339sX0Ttb7Sq/Y1W1bqXV/O/1Ue5gv7jz3+tn358Rdcq1XtyTQAAAI8CwmQAAABsKv7Efjc8fkV/9sevKvFMfNuO/Ydvr+nnn3yqTwpX9UnhqvKf/U5Xf/fVth3/+8b2JMnOf4zAfveWbbhBsy27VmlhB2/b7lCyLduypV1ukOwGtrcs655dx//xt/9Otm3rytUvZFm2LMuSZVmKHdivxDMxvZR4WgdfeFYHX3hWj0UjTQLmQCeybzK7xnme2lpf1OvJF/Rf9P6Fbt26pdyvP9NPfvEr/eQXef38l7/RzZs379l1AgAA7DSEyQAAAPDZF43oT95o1Z/80Sv6kz96VckXn922Y1/9/Cv9dPWKfv7JFf109Yo+LX6xbcf+3gtMGPu/MNwJY0+9hW+RPm8lhn8C2dltu0GzP3Ae/m/+R03/zV9v62VM/e9/K8mWVQ+0a3+kL8t/0Bdffa2PcgXdsixZlq2nYgd08IVndPCFZ9T6wnM6+Pyz2rt39wYTys0nl2t27dqlH772sn742sv65309qlRv6GefFPSTX+T1k1/8Sr+8UpRlUYkBAAC+vwiTAQAAoD9+/aDeevM1/ekPX1XqlRe37bi/+nRNH60W9LOPC/rp6hV9Wf5m244Nv0YVhRsC14Jfu7a4XiMcri22Z9m2DLsxqWzZdj1wtT2dyZYtGZ6tbVmyTVOWJf1P5/5P/auj/3RbruEXn1zRT37+S1mWEyBb3jBZzoR07XZtkvrzL8ta++IrLWVzunXLkmXbernlGf3g4HN6PfmiXnnpOT33tDNN3+hY3logHI3s0Z/98Wv6sz92Opf/8O01/d3PfqkPP/pEyyur+vqba9ty3QAAADsFYTIAAMD3UOzAY+psb9Of/+g1/dmPfqDHH4ve9TFv3ryljwvO4mY/W72in358RX/4lrDtvglOJtcX1Wvsd6qTG4vrGbXJYzegNWoTyUZja9m2dtme+1u2bNPZbxrSzz7O63/9t/+3/qt/9p/d1en/+tOrOjP9vmcS2a4H37WgvL61/cGw7fYf156H/G9/p199WtTFD7KyLEuP74/qjVdf1BuvvqTUKy8q+cJzMupD2VufND6wf596On+kns4fybJsreZ/qw8/+kQffvSxPs5f3XJIDQAAsFMZ1Wr1gfwvnjf+8bAMg/+xBQB3K258rdiubyVJn918Wje09wGfEYCH1Q9fe1lvvfm6/vxHr+n11ufv+njV6zf0808+1U8/vqKfflzQLz75ja7f2Pn9ss+ZX2ifeUO2LV25dffP0/1kmqZ2maZM05Dpbv23ne8bhqFdu0yZ7tYwavfz39c0DJnu/UzTkGnUvu/cx3D3GzJ04PHH9D//t391R+f9bxf+vS79P38ny7Zk25JlWbItW5btVFncsixnUtntT67dvnXLlm1b9Ylky/Lc391atiXrlnOs2v0ie/fojVde1B/94CW9mUpuyzR++Q/fannFCZb/v59+ou+usZAfUPPSrqJ2Gbaq1h4VrWce9OkAwCPhs+wJlT9/5b4/LmEyAOxwhMkANrIvsldvtb+mro42dXWktmX6OPuLvH7y97/S3/3sV8r9+rfbcJYPn50dJvuDYCcwbgTEu7zfD+4zgt+r7Q/e9gfJpmHIcP+YpqF//p//p/pHf/EnWzrftS++0tjEv6kHxd5qC8uy6wGx7QuU1wfMt9wF+uqL9dn2/8/efYdXVafr/7/XTkJI6FWaoUmHUEwCAqGE3hUdGyW0KKMgFjyOnnN+8z06ztgbIAJCCEVBREWQ3hJ6DYRepQlIDyWFJHv9/kjbQfZOgGSlvV/XNbOyN8/a+7mG0SR3njyflODY4TmHINrxUL8kuykvzyLyrV9DzRsm7wn3qfxgYVdiYpJ2H/pdG3ce0qbIg6x3QaFHmAwA2Y8wGQBwXwiTATgqWbyYHmteV62b11fzhrVUxOP+t5rZ7aaOnjynyAPHtevA79p35FSBmDzOTH4Okw1Dstnc/jqR7DiBnBYwp08uG6n1hpEhaE4Ljm2G3GypgbFjoCzZjJSrzSYpOdCWDJUrU1KD+3dWo7o1MvR4/uJVzV20VnsP/Z62siL1sD27PXllRYYg2XQMg5OD5vTJ5IwTyalBsj0lSM4YHGcMotPr7X85VK9sqeJq0ai2mtavqRYNa6pcmZL3/XdimqYOHv9DGyMPav2O/Tp34ep9vxaQXxEmA0D2I0wGANwXwmQAlcqXVusWDdS6RT01rlP9gV7rz0vXtDXqiCIP/K7dB37Xrdi4bOoy/8jPYbKku6yruNsKi+SVFW42Q8adqzGMjFPIRlq943NGWp3hOJlsGFLqYyllL7FxR4fp+40ddyM7HrZnTznkz+44sWy/Mzg2/zp5nNkksnlnoGxPe31XalSrKL/Gj8i/cR01bVDjgf5+Tv5xUZt2HdTGyIM6/PvZB3otIL8gTAaA7JdbYTIH8AEAAORDlcqXVlArX7V5tL5q+zxY4Bl16ETaIWInzlzIpg6RW5IPozNlphyyJzP5sDzD8UA7u2S6mbKbkltKwGoYtuSrzSa7XVLK4IctJdBNft4u2Wwy7KZks8m0S7bk/FiGIZmG6RAkJ4fIhpF++F9ajw6H6Sl1Mll3X3WRMUi+I3i2Ox7Wl/7Y7hBKy/EQP7vD4X0O92XmxJkLOnHmgn5culFeRT31aKPa8m/yiPyaPKJypUvc099P9aoVVL1qBT3bK1AXr1xPDpZ3HtSeQyeVZLff02sBAABYjTAZAF1PsBoAACAASURBVAAgnyhfpqQ6tGys9v6NH+gAvavRN7V9b+pBYcc4KKyASc6PU0JSIzlQNkwjJThNuRpGcrBqSw6abYYhu92ULe1xSvBqk0zTLsmW8ufJh+PZUoJlm2GT3ZAMm2SYKUFySrCslMcyTRmSMsSkZmronfzgzslk0/7XQDktKL4jME6dbL4zoHYMqlOfT7um3KP7+EXJ2Lh4rd+xX+t37Jck1fappJa+deXvW0cNale7p9eqULak+gYFqG9QgG7GxGlT5CFtijygnfuPKy4+4d6bAwAAyGGEyQAAAHlY2VLF1aFlE7Xzb6j6te4tqHJ0/PSf2hh5UFt3H9HhEwXz4DwkcwxX7Xa7DDdbymSy0gNluynTzaE27bFdppk8mWzYTKUOyhpG8kSyUi92e/LEsWFPXnWRlLz6IjVQTr7HkGSmXZNnk82UHh16lWPA6xAYS2mrLlLD5dQdyo4TyMn/Sd+tnHEy2S4peWVG8mvb099HKZPLD+jYqfM6duq8vlsUoZLFiynAt7b8m9SVf5Pa8vbK+qGXxb2LqkubpurSpqkkadOug9qw46A27Dyo2Dh+4AMAAPIGwmQAAIA8pphXUXV6zFftAho+0A7k/UdPa/2OA9q484DOX7qWjR0ir0tb5ZA6mWw4TCWbpkxDMu2GTJuZPslsV/KkcuoEsmnKJsluSjalhNOSZE+ZRFby83a7ZBimDHvKruSUQDn1/Y20wNZM/28zPVROW8thZgyVHVdZ2NMeK/3jDBPLyvDn5h316YF1xpUX2e36zVtauTFKKzdGyc1mU/3a1RTgW0f+Teqo1sMP3dNrPdasvh5rVl+vDE7U5l2HtGpTlLbvOcoqDAAAkKsIkwEAAPIAd3c3BTR5RJ1aN1VAkzry8Lj3L9MSEhK1+9AJbdh5UJsiD+ra9Vs50Cnyg9QJZHvKiovkncfJO5IN00yfPDaV8udpI8cpKywkKTlFttkluyFJydPISplEttkM2dMO35MMwybDYRI5bSI5ZVly+lyy0vcU3zVMVvJEccrVNJU+ceywQzn5ecfHd+5O1l9eN8Mk9v3suLgHSXa79h05pX1HTil0/iqVL1NS/inBcuvm9bL8OkU83NXOv5Ha+TfSteu3FL51r1ZtjuLwPgAAkCsIkwEAAHJRvZpVFdSqiTq1bqri3ln/lXhHyb8Of0AbIw+x/xhpTIfJXJuRcnX2OOWwPlNG2kSyadpl2m2y29InkFPy5uTD9u44fM8w7Ok7ktOuSkmQHaNkpYTISj4ETw4TyY4f2zPuRc64K1npqy1SHztOKsthpcWdh/SZqX9u7d/HpavXtSR8h5aE75BXUU+1bl5P7QMaqUXD2nJ3d8vSa5QuWUz9OrdUv84tdfKPi1q5abdWbdytK9E3c7h7AACAZEZ8fLzFX0Ylq98pRIaRK28NAAVKaeO6SrklTx+eTSynBBXJ5Y4AZKZc6ZLq0qapgh7zlU/l8vd8f1JSkiIP/K7wrfu0cedB3YqNy4EuC6+KtkvysiXINKVTSfd/0GFeYLMZstlsshkp1zseG4YhN1vyvuM7n7fZkqeObSn/MWw2JQ8mp1xttuT3MAzJSLkq+R4ZaQPJGXYmm44rMJQ+oWw30w/NS92VbEp/OWwvbSLZtKeHzXZTSamPU3Ysp96XZE9+PillctnxcV5RopiX2j7aQB0Cmqhpgxr39RqR+49r2fpdWrtlT/Y2B2STam7n5WaYird76Lz93j/vAQD+6uzu/1b0xZqWvy+TyQAAABZwd3dT6+b11C2wuVo0rJ12SFlW2e2m9h45qfCt+7Ru+wFdv8kKC2QufUdw6r7klMP3bI5BrmRzeN7usOrCZkj25MxYht0um2HIbthl2Awp5RA+e0pAnGSk7E42U8PklETZNFPmklMGSeypu5PNtDUXGYLku+1Ndlx1ccfU8p0TynfeazcdDttLmcTOS27citWSiJ1aErFTpUsWU3v/Rmof0FgNalfL8r8nmjespeYNa+nvz3XTyo1R+m3tdp29cCWHOwcAAIURk8kAkM8xmQzkbQ9XLq/ugS3UubWvSpUods/3Hzx+RhHb9il8635dvnY9BzrEnQrSZLKktAljt7SJ45QJZLfUSWQj4/MOj++cRDZSdySnvK5SppYlpe9OVvrj5A+UOpicdk1bmXzXCeWMwW/qigvpLjuTzYyTyGmTyUl3PHa85sDBezmhQtmS6tq2uTo/5qvKFcve8/17D5/S0nU7tW77fsXfTsiBDoGsYzIZALJfbk0mEyYDQD5HmAzkPZ5FPBTo11Dd2zVX4zrV7/n+46f/VPjWvQrfuk/nL13NgQ7hSkELkyWlr7gwUlddOA+Qk1daOKy3yLDiwkgPlDMcvpccIRtpqy6S39eQlPbAIUk2HZ5R6kSx44Syi0nj9P3J9gxTymnPpT1O/9h0/DiPTSZnRaM6Purcuqna+zeUt9e97Va/FRun1Zv2aHH4Dv1+5s8c6hBwjTAZALIfYTIA4L4QJgN5R62HK6lPRz91aNlYXkU97+neP/68rPCte7V2yz6dOncxhzpEVhTEMNmQZHOz3TGhfOfEsuNEcnqQ7Lg7+S8BssOkcuokcsarmXJaX8ol7cv/1InklEcOKy7SJpOVsjNZ6Yfo2TOEyXfZpewwgZxa5xgs58cg2VERD3e1btFAnVv7qnnDWnJL2VudVUdOnNPSdTu1evMexcZxWCesQ5gMANmPnckAAAD5kFdRT3Vo2Vg9Aluobs0q93Tvn5euKWLbPq3dulfHTp3PoQ4BpR1mZ7M5XpNXVWR8nLIz2bDJbpNsSn4+ZeBYhi15J3J6oJyyJzklKTYMQ4aZnhwbqe+euuJC6de0qWSHa+p+ZFPpu5Iddyj/JUi2O+xMdjiQLzlYTrnHnn5vfnc7IVFrt+zR2i17VLpkMXVt21zd2jZT1YfKZen+OjUqq06NXnrx2W5avTlKy9fv0v6jp3O4awAAUJAwmQwA+RyTyUDuaFC7mroHtlC7gEby8sz6P3cJCYnaGHlISyJ2avfB3wtEwFXQFMTJ5FTpk8jpO5BTdyNnmFBW+kSy4fhYqY+V9rzjJHLyh8nJcdrzSllwYSQfApghV75jZ3LahLL9jsP47OmH6KUfxqe0VRfpO5MdJ5UzTiYXZHVqVFbn1s3UIaDRPe9mP/nHRS1dt1MrNuzSzZi4HOoQhR2TyQCQ/VhzAQC4L4TJgHWKexdVlzbN1D2whapXrXBP954+d0nL1kVq+YZIXb8Zm0MdIjsU5DBZUtru5LS9yDZDhmGTzZCM1J3Jd1lxoTt3Jit93YXSVl1IjjuTU7YmZ5xMlpSyIdlhSjllcjhtKtlxIjnjdPKdqy5SnyusQfKdHmtWT90Cm6tVs3r3fO+67fv129od2nXgeA50hsKMMBkAsh9rLgAAAPKoJnWrq0f7Fgpq5XvP967cGKUVGyK1++CJ7G8MuA92uykZdtlkkz016zXsks2QkbLTInVi2W5PnjA2UwLlJEPJoXPaagtlCJaTX+uOncl3YTocxifdsTNZumuIbJpKWWmRPJHsOKFsz/C48AbJkrRp1yFt2nVIJYp5KahVE3Vu3Ux1amTthyKBfg0V6NdQp85d0qLV27Ri4252KwMAgAyYTAaAfI7JZCBneBbxUFCrJurbKUA1qz10T/eeOndRv63ZrlWbovi18XyooE8mp0qbUL7zkL27HriX+tjx4D2lTCQbf5lIdlxxcac7BpRTZ5Qz7EvWnZPJclh1Yf/rlHLGFRepz9sdDvwr3HyqVFDvjn4KauWr4t5Fs3xfbFy8Vm2K0oJVW3X63KUc7BAFHZPJAJD9WHMBALgvhMlA9qr6UDn16einLm2bqZhX1kOX+NsJWrd9v5ZE7NS+I6dysEPktMISJkspayscdignTx2nPE65Ou5MltJXXhhpqy3utjNZacGyw9bkO65pg8l/3ZmcPH6cFiTb7cl/njaZbLenHSqYttpCSjmQr3BOJGeFh7ub2gc0Vo92LdSojs893Rt18IR+Xb1NmyIPKon/fXGPCJMBIPux5gIAACCX2GyGWvrWVe8gP7VoWDstHMuK46f/1NKInVq1KUq3YplCRv5iN00ZdrtsNiM5gDUMGUbKY9OeHCQnPy0zyZRhM2SaqZPJyasuDNNMvs9MPXTPTMuLjYzH7WW4Oh4+mbon+c6dyXL42J4SMDtOIyevtnBcgZEePOOvEhKTtHLjbq3cuFs+lSuod5CfOj3mm6UfnPnWryHf+jV0+ep1/Ra+U4vDt+va9VsWdA0AAPISJpMBIJ9jMhm4f95enurd0V99g/xUvkypLN8XfztBqzfv0fL1kTpw7EwOdojcUJgmk1OlTyIbGSaRM661SJlEtqWutsg4kWzcOZHssOri7nPJDoFy2kSylBYgp6y2kHRHkJy+AiMtWLanf4x716FlE/Xu4KfGde9tWnnFhl36cdlGnfzjYg51hoKCyWQAyH5MJgMAAFikXOmS6t+1lXp2eFRenln/Acypcxe1cPU2rdwYxaFUKFBMU0oy7bLZbDLspmyGIbs9fTey4XDonmFXynqLlMP5HCaSky8p6y4yBLt3P4wvNTxO/TjDvmSlh8Yy9ZeJ5LvtTcb9Wbtlj9Zu2SOfKhX0ROeW6tjKV0U9PTK9r0ubZurSppm27z2qn5dv0Y59Ry3oFgAA5CYmkwEgn2MyGci6mtUe0t96tFZ7/0Zyc3PL0j1JSUnaGHlIC1dvU9ShEznbIPKEwjiZ7Cg1QE7bmZzhIL70Hck2w5a8O1mpQbLh8Nj1zmTTNDPky447k6WUSWTpL8FxWsh8x2F8yF7eXp7qHthCfTr6qXLFslm+78SZC/p55Wat2rRHiYmJOdgh8hsmkwEg+3EAHwDgvhAmA5lrXKe6enZooaBWvlm+5/rNGC0O36GFq7fr8rXrOdgd8prCHiansjmsvHAMkh0P2ktbb2GkHLtnpEXJ6c/dRfJAspn+se4IlO/YnZx2leOuZA6By2mGYci/SR31DfLXo42zvk/+avRNLVq7XQtXb9P1mzE53CXyA8JkAMh+rLkAAADIRl5FPdW5dRP1CQqQT+UKWb7v0O9/6NdVWxW+bT+TdSjU7Mm7L5J3J6ccuicjeQWGpAyTyIbDhLIyrLzQ3RPl1IlkhxUXyde7TCg7Bsn29PUXyHmmaWpr1GFtjTqsKhXLqn/XVgpq5StvL0+X95UpVVyD+nXQoH4dtGxdpH5culGnz1+yqGsAAJCTmEwGgHyOyWQgo1IlvPVEl1bqG+Qvb6+iWb5v1abd+mn5Fh07dS4Hu0N+wGTyXyXvSDbSA2TDSAuRpfTVF46Tq6nTy39NlDMGyMkfO0wpp04i644g2SREzgu8inqqR7sWerxzS1Usl7WDS03T1PY9xzR/+SbtOnA8hztEXsRkMgBkPyaTAQAAHkD5MiX1tx5t1D2wuTyLZH5wlCTFxMZpSUSkflq+mVUWgAtp08AOh+3ZMuxIvuMQPik5TTbtKYf0pVyVEi+bjjuUHSeSlWHymIP18p7YuHj9tHyTFqzcokD/Rnqy62OqU8P1D10Mw5C/7yPy931Ex0//qZ+Wb9LarXuVmJhkUdcAACC7MJkMAPkck8ko7B6uXF5P92iroFaNs3yo3qWr0fpl5VYtDt+hmNj4HO4Q+Q2TyVlnpO5ITptMltKP4JPzpclSxlUXqZPIEhPI+ZBvvRrq37WVWjatm+W9ypev3dCiNdu0aM123bgVm8MdIrcxmQwA2Y/JZAAAgHtQt2YVPdurnVo3r5fle5In4jZqzZZ9SkpiIg54UMkrKJRhZ0XaygulLLhw/MA0pfRLSoBsEB7nc1GHTijq0AlVq1ROj3duqd4d/TO9p1zpEgp+IkjP9W6nJRE7Nee3dboafdOCbgEAwINgMhkA8jkmk1HYNKrjo8H9OqppgxpZvmfL7sNaui5SmyIP5lxjKDCYTAYeTMni3uoT5K8+Hf1VumSxLN2TkJioJRE79f0iQuWCiMlkAMh+uTWZTJgMAPkcYTIKiwa1q2nIE52yHCInJSVp9ea9+mHJep0+dylnm0OBQpgMZA8Pdzd1bt1UT3RtJZ/KFbJ0T0JiopaER2ru4nW6fO1GDncIqxAmA0D2Y80FAADAXTSoXU1D+3eSb/0aWaq/nZCoZesiNW/pBl24HJ2zzQEAnEpITNKSiJ1aErFTAb519WTXxzL9gaCHu7v6dvJXj/bNtTQiUnN+I1QGACAvIUwGAAB5UtP6NTSgb3v51quRpfqY2DgtWrNd85dvUvSNmJxtDgBwT7ZGHdbWqMOqWe0h/a1Ha7XzayR3d+eHpnq4u6tPkL+6BzbXsvWR+n4RoTIAAHkBay4AIJ9jzQUKmqYNamhAn6yHyNE3bumXlVv066ptuhUbl7PNoVBgzQWQ88qVKan+XVqpT5C/inhkbcbpt7Xb9d3CCELlfIg1FwCQ/VhzAQAACjW/Jo/o2Z6BalzXJ0v1V6Jv6oclG7QkfIfibyfkcHcAgOx0+ep1TflhueYuXqfHO7dUn6AAlSjm5fKeXh381LVNMy3fsEvfL1qnS1evW9QtAABIRZgMAAByVbMGNTWwX3s1rlM9S/V//HlZ85Zs0MpNUUpMTMrh7gAAOen6zVjN+GWt5i3ZqN5B/nqiSyuVLVXcab2Hh3taqLxi4y59t5BQGQAAKxEmAwCAXNGsQS0N7NcuyyHysVPnNXfxeq3fsV92O6uyAKAgiY2/rXlLNuiXFZvVLbCFnureWpXKl3Za7+Hhrp7t/dS1TXOt2LBLsxdGECoDAGABwmQAAGCp5g1raUCf9lleZ7HvyCnN+W29tu05ksOdAQByW0Jikhat2aZFa7YpqJWvnusdqIcrO9+x6+7uph7tH1WP9o9q+fpIzV4YoT8vXbOwYwAAChfCZAAAYIkWjWprUL/2alD74SzV79x3TN8vWqc9h0/mcGcAgLxo9eYord26R4F+jTSgbzv5VK7gsr5r2+YKauWr5Rt267uF4UwqAwCQAwiTAQBAjmrRqLYG9GmnRnWyNom8fe9Rzf41XAeOncnhzgAAeZ3dbip8616t275P7QMa67ne7eSTyaRyz/Yt1LVNU63YuFuzfyVUBgAgOxEmAwCAHPFoo0c0oG87NXwka5PIO/Yd1awFhMgAgL+y202t2bxH4Vv3qkNAk6ytv2jXQl1aEyoDAJCdCJMBAEC28mtcWwP6dlCD2tWyVL9z3zHNXLCWEBkAkCm73dTqzVHJoXLL5EnlapXKOa13DJVXbtqt7xZG6MLlaAs7BgCgYCFMBgAA2SI5RM76TuTI/cc145c1hMgAgHuWZLdr1aYordoUpc6tmyr4iSBVKFvSab27u5u6B7ZQ98AWWhy+U7MXhusyk8oAANwzwmQAAPBAmjaooRee7qraPpWzVB918IRCf1pFiAwAyBYrN+7W2q171T2whZ7rHahypUu4rO/ZvoW6tPbV4vAdmr1wna7fvGVRpwAA5H+EyQAA4L74VK6gEU93VoBv3SzVHz15TtN/WqXte4/lcGcAgMImMTFJi9Zs04oNu/R45wD9rUdbFfcu6rTew8Nd/Tq3VNfA5vplxRbNW7pBMbHxFnYMAED+RJgMAADuSZlSxTWoX0d1C2wmN5st0/rT5y5p5oI1Wrf9gEzTtKBDAEBhFX87QXMXb9Bva3fobz3aqF+nlirq6eG03suziJ7rHajeHf00b+lGLVi5RfG3EyzsGACA/MWIj4/Ple/q6ncKkWHwDSUAPKjSxnWVckv+9cyzieWUoCK53BEKKi/PInqy22N6sntreXlm/v+zi1eua/ava7Viw24l2e0WdAhkj4q2S/KyJcg0pVNJWVvfAiBvKl2ymAb2ba/ugS3k7u6Waf2V6Jv6flG4lkREKjExyYIOC4dqbuflZpiKt3vovL18brcDAAXC2d3/reiLNS1/X8JkAMjnCJOR09xsNnUNbK5B/TqobKnimdZH37iluYs3aOHqrUrgG3HkQ4TJQMFTqXwZDejbXl3aNM1S/cUr1zXjlzVasWFXDndWOBAmA0D2I0wGANwXwmTkpMea1dOIp7uo6kPlMq2Njb+tn1ds1rwlGxUbx95J5F+EyUDB5VOlgoY92UmtmtXLUv2JMxf09XdLFHXoRM42VsARJgNA9sutMJmdyQAA4C8a1K6mF57pqga1H860NiExUYvWbNf3iyJ0/WasBd0BAHB/Tp29qP83bo7q1qyivz/XPdPPczWqVdRH/xWsrVFH9O0PK3Tq3EWLOgUAIG8iTAYAAGlqVntIw5/qLL8mj2Ram2S3a+WG3ZqxYK0uX71uQXcAAGSPw7+f1Wv/niZ/30c05Ikg1fZx/VsIAb519Gjj2lq+fpdm/LJGV6NvWtQpAAB5C2EyAABQlYplNfTJTmr7aAMZhpFp/fod+zXtx1U6e+GKBd0BAJAztkUd1fY9xxTo11DBT3R0udbJzWZTj3Yt1KFlY81fulHzl21SbPxtC7sFACD3ESYDAFCIlStTUsGPd1Cn1k3lZrNlWr9z3zFN/XGljp06b0F3AADkPNM0FbFtnyK27VOfID892zNQ5cqUdFrv5VlEA/t1UJ8gf03/abWWROy0sFsAAHIXYTIAAIVQyeLFNKBvO/XrFJCl+sO/n9XU+Su0+8CJnG0MAIBctHD1di2NiFTfTgF6pmdblSzu7bS2VIliGhPcR090baWp81Zqy+7DFnYKAEDuIEwGAKAQcXNzU98gfw3o217FvYtmWn/yj4ua/vNqbYo8aEF3AADkvoTEJM1ftkmLw3fqqW6PqX/XVvIq6um03qdyBf3fK89p35FT+vq7pTp26pyF3QIAYC0jPj7ezI03rt8pRIaRK28NAAVKaeO6SrndkiSdTSynBBXJ5Y6QVzVrUEujB/V0uQ8y1flL1zRrwVqt3hwlu53P1yhcKtouycuWINOUTiW5PpQLQMFXsngxPd+7rXp19JOHu+t5LNM0tWbLHoXOX6WLVzicNlU1t/NyM0zF2z103l4+t9sBgALh7O7/VvTFmpa/L5PJAAAUcFUfKqcXn+2qAN+6mdZejb6p7xet0+KIHUpMTLKgOwAA8rbrN2/pmznLNG/ZpkzPGTAMQ0GtfBXo11ALVm7Vd4siFBMbb3HHAADkHCaTASCfYzIZzngV9dTAvu3Vr1OA3N3dXNbeio3Tj0s36ucVmxUXn2BRh0DexGQyAFeqVCyroU92UqBfw0xrb8bE6buFEfpp+SYLOsu7mEwGgOzHZDIAAMg2vTr4KfiJji4PDko1f9kmfb8oQjdj4izoDACA/O3shSt6f+I81a9VTaMH9VRtH+c/dCruXVQvPNNVvTv6afLc5dq865CFnQIAkP0IkwEAKECaNaipkKe7qrZPpUxrN+86pElzl+nchasWdAYAQMFy8PgZjXp3itr5N9LQJzupUvnSTmurVCyr/zf6WUXuP66vZy/R6fOXLOwUAIDsQ5gMAEAB4FO5gkY83UUBvnUyrf3jz8saN3Oxdh04bkFnAAAUXKZpKnzrXm3YeVCPdwrQs70DVdy7qNP65g1r6Zt3R2rR2h2a8fMa3Yrlt4IAAPkLYTIAAPlYmVLFNfjxjuratpnTw4BS3YyJ0+xfw/Xr6m1KSuJwPQAAsktiYqJ+XLZRy9ZHakCfdurd0d/peQVubm7q1ylAHVs21swFa/Tb2h2y2zlPCACQPxAmAwCQD3l5FtGT3R7Tk91by8vT9aGLdrupZet2KvSnNbp+85ZFHQIAUPjcuBWrb+Ys04LVWxXyty5q3aKB09qSxb318oBe6tXeXxO/X6LdB09Y1ygAAPeJMBkAgHzEzWZT18DmGtSvg8qWKp5p/b4jp/TVzEU6+cdFC7oDAACSdO7CVb074Qc1rV9DLw/oIZ8qFZ3W1qhWUR++Gazwrfs0bf5K/XnpmoWdAgBwbwiTAQDIJ/yaPKK/P9ddVR8ql2ntn5euKfSn1Vq7ZY8FnQEAgLvZffCERv7zG/Vs76fBj3dQyeLeTmvbBzRS6xb1NH/ZZs39bZ1i429b2CkAAFlDmAwAQB5X9aFyevHZblk6XO/6zVh9vyhCC9dsU2Iie5EBAMhtdrupRWu2ac3mPQru31G9Ovg5PefAw91dz/Zqqy5tmip0/iqt2hQl02SfMgAg7zDi4+Nz5TNT/U4hMgw+KQLAgyptXFcpt+Q9uGcTyylBrvfnIv/wKuqpgX3bq1+nAKeH+KRKSEzUglVb9d3CCMXExlvUIVAwVbRdkpctQaYpnUqqnNvtAChgHq5UXqMH95JvvRqZ1h45cU5fzVyoIyfO5XxjOaia23m5Gabi7R46by+f2+0AQIFwdvd/K/piTcvfl8lkAADyGMMw1D2wuYKfCFLpksVc1pqmqfCtezX1x5W6eOW6RR0CAID7dfr8Jf3XR2Fq3aKBQp7uosoVyjitrVOjsr76nxCt2rRHofNX6vK1GxZ2CgDAXxEmAwCQhzSq46OXnu+h2j6VMq09ePyMxs1crGOn8ve0EgAAhdHGnQe0cecBPdOzjZ7v016eRTzuWmcYhjq39lWgXwPN+W2dvl+0zuJOAQBIR5gMAEAeUL5MSYU83VXtAxplWnvhcrQmzVmmDTsPWNAZAADISXMXb9DKjVEa9lQnBbXylWEYd63zLOKh4CeC1LVtc337wwq+DgAA5ArCZAAAcpG7u7v+1v0xPdsr0OlEUqrY+Nua+9t6zV+2UQkcrgcAQIFx+doNffztL1q4ertGD+rl8jeUKlcoo/99+WlFHTqhCbMX6+QfFy3sFABQ2HEAHwDkcxzAl381a1BTYwb3VuWKZV3Wmaap1ZujNO3HVexKBCzAAXwAcpNhGOrSppmG9g9SmVLFXdYm2e1avHaHZi5Yo+s3Yy3q8N5xAB8AZD8O4AMAoJAoV7qkXny2q9r5Z77S4siJc5owe7EOHj9jQWcAACC3maapn96veQAAIABJREFU5esjtW7bPg3o1179ggLk4XH3b93dbDb1CfJXh5aNNWvBWi1as11JdrvFHQMAChPCZAAALOLm5qYnurTUgD7t5FXU02Xtleibmv7Taq3YsEumyW/yAABQ2MTG39a3P6zQ4rU7NPK57grwreO0tkQxL/39+R7q1eFRff3dMu06cNzCTgEAhQlhMgAAFmhav4ZeHthTPpUrZFo7b8kGfbcwQrHxty3oDAAA5GVnL1zR//fld3q00SN6eWAPVXGxHsunSkV9MHaQNu48oMlzl+v8pWsWdgoAKAwIkwEAyEFlShXXyGe7qX1A40xrow6e0LiZv+n0+UsWdAYAAPKTHfuOKuR/vla/Tv4a0Le9inkVdVrbukUD+TWpo7mL1+uHxes5uBcAkG0IkwEAyAE2m6E+QQEKfryDvF18syclr7SY8sNyrdm8x6LuAABAfpSUlKSflm/Wyo17NKR/kLoHNpfNZty1toiHuwb166AubZpp/MxF2r73mMXdAgAKIsJkAACyWb2aVTUmuI9qPfyQy7oku10LV21V2C9rFRsXb1F3AAAgv7t+85a+mrFQi9Zs0yuDe6l+rWpOayuVL61/vTZQG3Ye0Nezl+rytesWdgoAKGgIkwEAyCYli3trxN86q0ubZjKMu08JpTr0+x/6Mmyhjp/+06LuAABAQXP89Hm9+v5UtQ9orJCnO6t8mVJOa9u0aKAWjWrr+0XrNH/ZJiUlsfoCAHDvCJMBAHhAhmGoVwc/BT/RUSWKebmsjb5xS9Pmr9Ly9btkmqZFHQIAgIIsfOtebdl9SH/r3kYD+rZ3WuflWUTDnuykzq2basLs37T7wAnrmgQAFAiEyQAAPIB6NavqlcG9VNuncqa1i8O3a9qPq3QzJs6CzgAAQGESF5+gmQvWavXmPRo1sKeaN6zltNancnl9ODZY4Vv3atKcZboSfdPCTgEA+RlhMgAA96G4d1ENe6qTerb3y7R2z+GTGj/rN53846IFnQEAgMLsjz8v6+1PZ6p9QCO98HRXlStT0mlt+4DGCvCto1m/huuXFVuUZLdb2CkAID8iTAYA4B4YhqGubZtp2JOdVKpEMZe1f166pqk/rlDEtv0WdQcAAJAsfOs+bY06qoF92+vxzgFyc3O7a51XUU+FPN1V3do20xdhi7T/6GmLOwUA5CeEyQAAZFGthx/SmOA+qlezqsu6uPgEzVu6QfOWbNDthESLugMAAMgoNi5eU35YrmXrI/VqcB81fORhp7U+VSrqs7eHaeXGKE35YZmib8RY2CkAIL8gTAYAIBPeXp4KfiJIvTv6yc1mc1kbvnWvpvywQpeuXreoOwAAANdOnb2o1/8zTZ1bN1XI011c/nZV59a+eqx5XYX9tEaL1m6T3c6BwQCAdEZ8fHyufGZo9+QYGUZuvDMAFCzucZfkkXhNkhTnVU2mW9Fc7qhgaevXUM/0bp/pSouTf1zQ9B9X6tipsxZ1BiCnFIk5Izd7nExTiivxSG63AwDZyqtoET3VI1Cd2jSTLZNvyk+dvahp85br+KlzD/SenjePySZTSYanbhdzPh0NAMi6A5te1oU/6lr+vrk2mdyx2cMySJMB4IGdOB6v82eTw2T/+pVVrFiJXO6oYChdqqRat/LTQxXLu6y7ffu2du7aq4OHj8qnrLt8yvpY1CGAnLJ/zyVdj46TYUgdm/HPNICC58zvR7Qw+qLatvJXuXJlnNb5VKmgf74yQEeOHteOXXsUFxd/X++3bdPvSkpKUknvImrCv1cBIFtcPBKdK+/LmgsAABy4u7uredNGatywXqa1h48e146dexUXH2dBZwAAANnnypVrWrhkherWqa1HmzWWp6fnXesMQ6pbp5aq+1TVjsi9Onz0mEw2XwBAoUWYDABAipo1HlbAo03l7e3tsu5adLQ2bt6hPy9csqgzAACA7Gea0qHDx3Ty1Bn5NffVI7VrOl1H6enpqdatHlW9OrW0Yct2Xb581dpmAQAZ2BMTcuV9czFMNiWx5gIAkPtKlCiu1i39VKVyRZd1t28naFfUPh04dITDaAAAQIERFxev9Zu26eCR4wps7afSpUo5rS1Xroz69Oisg4ePakfkXiUk5E6YAQCFnv12rrwtk8kAgELLzc1NTZs0VOOGdeXm5uay9vjvp7VtR6RiYllpAQAACqZLly7r51+XqUG9R/Ro88by8Chy1zrDMNSgXh3VqP6wtu/craPHTlrcKQAgtxjx8fG5MlpVq1ZdGQZTXQDwoMqVK6+yZctKkk6ePKHbt3Pnp5P5TZs2bTV69ChVrOh6GvnMmTP6/PPPFBm5y6LOAOS2qlWrytu7mEzT1NGjR3K7HQDIFWXKlNGoUS+rY8egTGv37duvTz/9RCdOnLjrn9esWUvu7u6KjY3TmTOnsrlTACicLlyYpxs3mln+vjbL3xEAgFxUuXIlffjhB3rvvXddBskJCQmaOXOmhg0bTpAMAAAKnatXr+q99/6lV199TadOnXZZ26hRQ02ePFkhISHy8PCwqEMAQG4gTAYAFAru7u56/vnnFRo6Xf7+AS5r9+/frxdeeEGhoaFKzKVDDQAAAPKCqKjdGjFiuCZPnqzY2Finde7u7nruuec0fXqomje3flIOAGANwmQAQIFXr149TZkyRSNGjFCRInff/SdJt27d0hdffKHRo0fr5El2/wEAAEhSYmKi5syZo8GDg7Vu3TqXtZUrV9Gnn36mt99+W6VKlbaoQwCAVTiADwBQYHl7e2vEiBD17dtHNpvrn59GREToyy+/0NWr1yzqDgAAIH+5fPmS/vnPf6pFi+YaO/ZNVapUyWltly5dFBAQoG+++UaHD7N/HgAKCsJkAECB1LZtoF55ZZTKl6/gsu7ixQv6/PMvtHnzZos6AwAAyN927ozU888/r8GDB2vIkCFO60qVKqW33npLBw4c1KxZs3X6tOvdywCAvI81FwCAAqVcufJ677339O67/5dpkPzzzz9r6NBhBMkAAAD3YcaMGQoODtaePXtc1jVoUF/vv/+e+vTpbVFnAICcQpgMACgQDMNQv379NH36dLVp08Zl7cGDBxQSEqJx48YpJibGog4BAAAKntOnT2vMmDH69NNPdOPGDZe1f/vbUwoNDVXDhg0s6g4AkN1YcwEAyPfq1q2j118fq7p167isi46O1rffTtHixUtkmqZF3QEAABR8v/22WBs3btSoUaPVsWNHp3XVq1fXuHHj9euvv2rKlCn8YB8A8hkjPj4+V76brlWrrgyDb+QB4EGVK1deZcuWlSSdPHlCt2/fzuWOrFO8eHENHz5cffq4PmDPNE399ttiTZ48STdv3rSwQwD5UdWqVeXtXUymaeroUQ6NAoB75efnrzfffEMVKlR0WXfp0iWNGzdO69ats6gzACg4LlyYpxs3mln+voTJAJDPFdYwuXv37nrhhRCVLl3GZd2xY8f06aef6eDBAxZ1BiC/I0wGgAfn5eWlIUOGqH///nJzc3NZu3nzZn3++ee6ePGiRd0BQP5HmAwAuC+FLUyuXr263nhjrBo3buSy7ubNm5o6daoWLlwou91uUXcACgLCZADIPnXr1tU777wtH5/qLuvi4uI0depUzZ8/36LOACB/I0wGANyXwhIme3t7a+jQoXryySczrV2xYoUmTpyoa9euWdAZgIKGMBkAslfNmrUUFBSkJ554XN7e3i5rDx06pI8//ljHjx+3qDsAyJ9yK0zmAD4AQJ4XFNRJL73097TQ3Jlz587ps88+144d2y3qDAAAAFkRERGhjRs3qW/f3uratasMw7hrXb169TRp0iQtWLBA06ZN44A+AMhjnJ9WBABALqtU6SF9+uln+p//+W+XQXJiYqLmzJmjYcOGESQDAADkUTdu3NCHH36oMWNe0cmTJ5zWubm5qX///poxY4Y6d+5sXYMAgEwRJgMA8hw3Nzc9++yzmjYtVM2bu/61nUOHDmnkyJGaPHmy4uPjLeoQAAAA92vv3n0aMSJEEydO1K1bziePy5Ytq3feeUdffPG5fHwetrBDAIAzhMkAgDwl9VcbX3jhBRUtWtRpXUxMjMaPH6+XXnqJnXoAAAD5TFJSkubNm6fg4MFas2aNy1pf36b69tupevHFF11+fQgAyHmEyQCAPMHLy0ujRo3ShAkTVKtWLZe1mzdv1tChQ/XTTz/JNDnMFQAAIL+6cuWK3nvvPY0d+4bOnTvntM7d3V3PPPOMZswIU/v27S3sEADgiDAZAJDrHnvsMYWFTVf//v1lszn/1HTt2lW99967euedd3Tx4kULOwQAAEBO2rkzUgMGDNB3333nsq58+Qr65z//qY8++lCVK1exqDsAQCrCZABArilbtqzeffddvf/++ypfvoLL2sWLF2vQoMFas2atNc0BAADAct9++61GjBihQ4cOuazz8/PXtGlT9fzzz8nNzc2i7gAAhMkAAMsZhqG+ffsqLCxMbdu2dVl78uRJjRr1sj755BPdunXLog4BAACQW44fP66XXnpJX331lcsD+jw9PTViRIgmTZqkevXqWdghABRehMkAAEtVr15d48aN06uvvqpixYo5rUtIuK3Q0FCFhIRo//4DFnYIAACA3Gaapn755RcNGRKszZs3u6ytVauWJkyYoFdeeUXe3t4WdQgAhRNhMgDAEu7uHho6dKgmT56shg0buqzdsydKw4eP0MyZM5WYmGhRhwAAAMhrLl++rHfeeUf//Oc/denSJad1NptNjz/+uMLCwtSqVSsLOwSAwsU9txsAABR8TZr46s03x6patWou665fv65JkyZryZLFFnUGAACA/GDdunXasWOHQkJC1K9fP6d15cqV07///W9FRERo3Lhxunz5soVdAkDBx2QyACDHlChRQm+8MVZffvlFpkHy8uUrFBw8hCAZAAAAdxUTE6Mvv/xSo0eP0smTp1zWtmvXTmFhYS6DZwDAvSNMBgDkiM6dOyssbLp69erpsu7kyVN6/fXX9cEH/1F09DWLugMAAEB+tW/ffoWEjNC0adN0+/Ztp3Xe3t4aM2aMJk6cqOrVq1vYIQAUXITJAIBsVanSQ/roow/1zjvvqHTpMk7rYmNjNXnyZIWEjNCuXbss7BAAAAD5XWJiombNmqWhQ4dpz54ol7X16tXTlClTNGzYMHl4eFjUIQAUTITJAIBs4ebmpqefflrTpoXKz8/fZW1ERIQGDw7WnDlzOGAPAAAA9+3cubMaM+ZVffTRx7p+/brTOnd3dw0cOFDTp4eqSRNfCzsEgIKFA/gAAA/skUce0T/+8Q/VqlXLZd3Zs3/os88+086dkRZ1BgAAgMJg6dIl2rRpk0aNelmdOnVyWle5chV9+eUXWrZsqb7+eqJu3LhhYZcAkP8xmQwAuG9eXl566aWXNHHiRJdBcnx8vEJDQzVkyDCCZAAAAOSI6Ohrev/99/Xmm2/qzz8vuKzt1q27wsLC1KVLZ4u6A4CCgTAZAHBfWrZsqenTQ/XUU0/Jzc3Nad327ds0dOgwzZw5U4mJCRZ2CAAAgMJox44dGjIkWPPm/eCyrnTp0nr77Xf00UcfqlKlhyzqDgDyN9ZcAADuSZkyZTR69Gh16NDBZd21a9f09ddfa+XKldY0BgAAAKSIj4/XxInfaNmy5frHP/6hRx55xGmtn5+/QkOnKywsTPPmzVNSUpKFnQJA/sJkMgAgSwzDUO/evRUWFpZpkLx06RIFBwcTJAMAACBXHT9+XCNHjtTXX3+tmJgYp3Wenp564YUXNGnSJNWrV8/CDgEgf2EyGQCQqWrVqukf//iHGjZs6LLu3Lmz+uCDj7RnT5RFnQEAAACu2e12/fjjjwoPD9drr72mVq1aOa2tVauWJkyYoF9++UVTp05VbGyshZ0CQN7HZDIAwCl3dw8NGTJEU6dOdRkkJyYmatasWRoyZChBMgAAAPKkixcv6p133tF7772rK1euOK2z2Wzq37+/pk8PdRk8A0BhxGQyAOCumjTx1ZtvjlW1atVc1u3fv18ff/yxTp48aVFnAAAAwP1bs2attm3bruHDh6lfv8ed1lWoUFH//ve/tXbtWo0b95WuXr1mYZcAkDcxmQwAyKBYsWIaO3asvvzyC5dBckxMjL788kuNGjWKIBkAAAD5ys2bN/Xll18pJCREBw8ecFnboUMHzZw5U/369bOoOwDIuwiTAQBpOnToqBkzZqpnz54u69avX6/BgwdrwYIFFnUGAAAAZL9jx47p5ZdH6bPPPtP169ed1nl7F9OYMWM0fvx4Va9e3cIOASBvYc0FAEBVqlTR66+/oRYtmrusu3jxgj7//Att3rzZos4AAACAnGWaphYtWqR169YpJCREPXr0kGEYd61t2LChJk+erDlz5mjmzFlKTEywuFsAyF1MJgNAIVakSBENHz5coaGhLoNku92un376SUOGDCVIBgAAQIEUHR2tTz75RC+/PErHjh1zWufh4aFBgwZp2rSpatLE18IOASD3ESYDQCHVpk0bTZ8epgEDBsjDw8Np3fHjx/Xyyy9r/Pjxio2NtbBDAAAAwHoHDx7Qiy++qPHjxysm5pbTumrVqumLLz7X2LFjVaxYMQs7BIDcw5oLAChkKleupFdffVX+/gEu6+Lj4xUWFqZ58+YpKSnJou4AAACA3Jf6m3lr1qzW6NGvqEOHDnetMwxDPXv21GOPtdb48eO1Zs1qaxsFAIsxmQwAhUhwcLBmz/4u0yB5x47tGjp0mObMmUOQDAAAgELr6tVrevfdd/X222/r0qWLTuvKlCmt//3f/9EHH3ygypUrWdghAFiLMBkACoFHH31U3333vYKDg13WRUdH6z//+bfefPO/dP78OYu6AwAAAPK2LVu2KDh4iObPny+73e60LiAgQKGh0xUcHOxylRwA5FeEyQBQgJUqVVr/+Mfb+vjjj1Wp0kMua5ctW6rBgwdrxYqVFnUHAAAA5B+xsbGaMGGCRo4cqePHjzutK1KkiIKDgxUWFiZ/f38LOwSAnMfOZAAooLp166aRI0eqVKlSLuvOnTurDz74SHv2RFnUGQAAAJB/HT16VC+++KKeeuopBQcHq2jRonetq1Spkj788EOtW7dOX301TpcvX7K4UwDIfoTJAFDAVK5cRWPHjlXz5s1c1iUmJmrOnDmaOXOmEhISLOoOAAAAyP+SkpI0d+5chYev1ZtvvuXya+/AwED5+flp1qxZmjdvnhITEy3sFACyF2suAKCAcHd317PPPqvQ0GmZBsn79+9XSEiIpk2bRpAMAAAA3Kfz5//UG2+8rn/9631dvXrNaZ2Xl5dCQkL07bdT5evb1MIOASB7MZkMAAVArVo1NWjQIFWpUsVlXUxMjKZMmaIFCxZY1BkAAABQ8K1evUrbtm3VCy+8qF69ejqt8/F5WF988blWrlypCRO+VnS08wAaAPIiJpMBIB/z9vbW8OHD9dZbb2UaJK9du1bBwcEEyQAAAEAOuHHjhj799BONGfOqzpw547K2c+fOCgubrh49nAfPAJAXGfHx8WZuvHGtWnVlGLny1gBQIHTp0lkjR/5dZcqUcVl38eIFff75F9q8ebNFnQFA/la1alV5exeTaZo6evRIbrcDAPlezZq15O7urtjYOJ05cyq327GEu7uHBg0aqGeffVYeHh4ua/fsidIHH3ykc+fOWtQdgILgwoV5unHD9YrLnMBkMgDkMz4+D+urr8bp7bffcRkk2+12zZ8/X0OGDCVIBgAAACyUmJig0NBQvfDCC9q/f7/L2iZNfDV9+jQNHDhQ7u5sIwWQtxEmA0A+UbRoUb344ov69tupaty4kcva48ePa+TIkZowYYJiY2Mt6hAAAACAo5MnT2r06NH6/PPPdevWLad1Hh5FNGzYME2ZMkUNGzawsEMAuDeEyQCQD7Rv315hYdP1zDPPuJxWiIuL06RJk/Tiiy/q6NGjFnYIAAAA4G5M09TChQs1aNAgrVixwmVt9erVNW7ceI0ZM0be3t4WdQgAWcfOZADIw6pUqaIxY16Rv39AprV79uzVp59+olOnCsceOgDIKexMBoDsVRh3Jrvi69tUb7zxuh5++GGXdVeuXNHXX0/U6tWrLOoMQH6SWzuTCZMBII8aOnSoBg0alGnd5cuX9MMPP2rXrl06efKEbt++bUF3AFBwESYDQPYiTP4rd3d39e/fX4MHD850Ajkqarc++uhjnT3LAX0A0nEAHwBAktSwYQPNmDEj0yA5ISFBs2bN0iuvjNGuXbss6g4AAADAg0pMTNQPP/yg4OAhWrt2rctaX9+mCg0N1fDhI1SkSBFrGgQAJwiTASCPKFasmF5//Q2NGzde1apVc1m7c2ekhg4dqmnTpun27QSLOgQAAACQnS5fvqR3331XY8e+obNn/3Ba5+HhoQEDntf06WFq06aNhR0CQEbOT3ECAFimY8cOevnlUSpbtqzLuosXL+jrrycqPDzcos4AAAAA5LSdOyM1cOAgDRw4UMOGDXNaV6nSQ3rvvfe0ZctWffnllzp//pyFXQIAk8kAkKsqVKigjz76UP/7v/+fyyA5MTFRc+fOVXDwEIJkAAAAoICaNWuWBgwYqMhI12vsWrYM0PTpoRo8eLDc3T0s6g4ACJMBIFfYbDY99dRTCg0NlZ+fv8vavXv3KSQkRJMmTVJcXJxFHQIAAADIDefOndUbb7yuDz74j65du+a0rkiRIhoyZIimT5+mFi2aW9ghgMKMNRcAYLF69errtddeU926dVzWXbt2TV9//bVWrlxpUWcAAAAA8orly1do06bNeumll9StWzendVWqVNUnn3yqiIgIjRs3XpcvX7KwSwCFDWEyAFikePHiGjFihHr37i2bzfkvhiQlJWnBggWaNm2aYmJiLOwQAAAAQF5y48YNffjhh1q+fJnGjh2rypWrOK1t166d/P39NXPmTP34449KTEy0sFMAhQVrLgAghxmGoe7de2jGjDD17dvXZZB88OABjRw5UuPHjydIBgAAACBJiozcpSFDhmr27NkuQ2IvLy+98MIL+vbbqfL1bWphhwAKCyaTASAHVa9eXW+99V+qX7+By7pr165q8uRvtWzZUpmmaVF3AAAAAPKLhIQETZ06VatWrdLYsWPVsGFDp7U+Pg/riy8+15o1qzV+/ARdvXrVwk4BFGRMJgNADvD29tZLL72k0NDQTIPkRYsWKTh4iJYuXUKQDAAAAMClEydOaNSoUfrkk48VHR3tsrZjxyDNmDFDjz/+uEXdASjoCJMBIJsFBXVSWFiYnnrqKZd1hw8f0ciRL+qzzz7TjRs3LOoOAAAAQEGwePESDRo0SAsXLpTdbndaV6xYMb3yyiuaMmVKpoMuAJAZ1lwAQDapUaOGXnvtdTVp0thl3Y0bNzR16lQtXLiQSWQAAAAA9+3mzZv6/PPP9dtvi/T662NVt24dp7W1a9fWhAnjtXjxEn377ZRMp5oB4G4IkwHgAZUsWVLDhg1Tr1695Obm5rTONE0tW7ZUkyZN5gs3AAAAANnm8OEj+vvfR6pv374aNmyYSpQocdc6wzDUq1dPtW3bRt9+O0WLF7NqD8C9Yc0FANwnNzc39e/fXzNnzlTfvn1dBsnHjh3Tyy+P0kcfZb7XDAAAAADulWmaWrBggQYPHpzpwd6lSpXSG2+M1YQJ41W7dm0LuwSQ3zGZDAD3oWnTZnr11VdVvbqPy7pbt24pNDRUv/zyi8s9ZgAAAACQHaKjo/Xhhx9p8eLFGjPmVdWqVctpbf36DTRlyhTNnz9foaGhiomJsbBTAPkRYTIA3IPKlavo739/UW3bBmZau2LFCk2cOFHXrl2zoDMAAAAASLdnz16NGDFCTz31lIYOHSovLy+ntU8++aQ6deqkSZMmadmyZRZ2CSC/Yc0FAGRB0aJFNXz4CM2ePSvTIPn06dN67bXX9Z///IcgGQAAAECu+vHHHzVo0CCtWrXKZV3p0qX11ltv6ZtvvlHdunUt6g5AfkOYDACZaNs2UKGh0zVgwPMu62JiYvTNN99o+PDh2r17l0XdAQAAAIBrV65c0fvvv69XX31Np06ddllbt25dTZw4UW+99ZbKlCltUYcA8gvWXACAE5UrV9Krr74qf/+ATGvXrl2rCRO+1uXLlyzoDAAAAADuXVTUbo0YMVxPPvmkBg8e7HT1hWEY6tatm9q2DdR3383WvHnzlJiYaHG3APIiJpMB4A4eHh4KDg5WaOj0TIPks2f/0Nixb+jdd98lSAYAAACQ5yUmJmru3LkaPDhY4eHhLmuLFfNWSEiIQkND1bp1a4s6BJCXMZkMAA78/f312muvqVKlSi7r4uLiNHv2bM2d+4MSExMs6g4AAAAAssfly5f0f//3f3r00Uc1evQr8vF52Glt1apV9a9//Uvbt2/TV1+N05kzZyzsFEBeQpgMAJLKlSuvV14ZrcBA14frSdLGjRs0btw4/fnnBQs6AwAAAICcs2PHDg0fPkx9+/bVkCFDVKJECae1fn7+mjZtmn799VeFhobq1q1bFnYKIC8gTAZQqBUpUkTPPPOMnn/+eXl6erqsPX/+T3355efasmWrRd0BAAAAQM5LSkrSzz//rFWrVmno0KHq3bu33Nzc7lrr7u6u/v37KygoSNOnT9eiRYtkt9st7hhAbmFnMoBCq1OnTgoLm6GhQ4e6DJJv376tsLAwBQf//+3de1TVdb7/8ReKbsQEvGCWIAqkBVoBqXhL1BTzAtSIpeLU8TIn9dec9Jy1Jqezup3V6KxprKnR5iKuUTEtNG95wVJBRMUSTARFoFQYQdAUiMv2xu8PkLKE7wY3m9vzsZaLzfbz+X7e9Ed+94vP9/35NUEyAAAAgBarqKhIf/nLXzR37lx9883xWse6uLjolVde0cqVKzVgQH8bVQigsbEzGUCr8+ijj2nRokW19gS7LTHxqD744H3l5ubZoDIAAAAAaHyZVwWIAAAgAElEQVRnz57VwoWLNGLECL300kt64IEHahzbu3dv/eUvHyg2NlYfffSRCgoKbFgpAFsjTAbQanTp0kULFszXqFGjDcfm5V3U8uXLlZBw0AaVAQAAAEDTEx8fr/j4eEVERGjGjBm1PtEZFBSkoKAgrV69WuvXr9e1a9dsWCkAW6HNBYAWz97eXlOnTtWaNWsMg+Tr169r3bqP9eKLLxAkAwAAAICkqKgoRUREKCZmj+HYF154QVFRa/XUU0/ZoDIAtkaYDKBF8/N7XP/850q99NJLcnR0rHVsfHy8XnzxBUVGruS36AAAAADwE5cvX9Yf/7hUL730ks6cOVPr2G7dXPX73/9ey5f/VV5eXjaqEIAt0OYCQIvk7u6u//zP/9TQoUMNx2ZmZuq9997XqVNpNqgMAAAAAJqvM2fOaN68eRo3bpzmzJmjrl271jj2kUd89Pe//107d+5SZGSkCguv2rBSAA2BMBlAi+Li4qJZs2Zp0qRJhmPz8i4qMnKl9u3bp4qKChtUBwAAAADNX0VFhWJiYnTgwAHNmDFD4eFT1K5d+7uObdOmjSZNmqhRoyr7KW/ZskU3btywccUArIU2FwBaBJPJpIiICK1dG2UYJN+6dUs7duzU9OnTtHfvXoJkAAAAAKiHsrIyrVy5Ui+88IIOHqz9zJmOHTtq/vz5WrVqlfz9/W1UIQBrY2cygGbNzs5OwcHBmjXrP9Stm6vh+JSUk/rgg78oKyvLBtUBAAAAQMuXl3dRr7/+uvz9/fTyyy/Lw6N3jWPd3Nz07rvv6tChQ1q+fIVycy/YrlAA94wwGUCzFRAQoAULFqh3796GY/PyLuof//iHYmP3N3xhAAAAANAKJSUla/bsOZo8ebJefPFFOTs71zh26NChGjRokLZu3ao1a9aouLjYhpUCqC/CZADNjru7u+bNm6/AwMGGYwsLC7Vu3Tr6cgEAAACADdy6dUtbt27Vl19+qVmzZmny5Mmyt797/GRvb69f/epXCg4OVlRUlD77bLNu3Lhu44oB1IWd2WxulGahnp59ZWdHn1IAlrt9uN7TTz+ttm3b1jr2+vVr+uyzzVq7dq1KS0ttVGHj6Nq1m7p06SJJOnfurK5du9bIFQFA89azZ085OnZURUWFMjMzGrscAGj2+vTxlL29vcrKypWTc76xy4GN9erVSy+//FsFBBj3Sc7NzdXKlZHav3+fDSoDmrf8/GgVFz9u83UJkwE0eSaTSVOnTtVzzz0nR0fHWsdWVFRo7969WrlypfLz821UYeMiTAYA6yJMBgDrIkyGVNnWYt68eerZs6fh2PT0dH3wwYc6dSrNBpUBzVNjhcm0uQDQZLVp00bBweP1H//xorp162Y4PiXlpD788ANlZmbaoDoAAAAAgKUOHTqkQ4cO6fnnn1dExAw5OnascWy/fv20fPlfdejQIX300Uf697//bcNKAdSGMBlAkxQQEKB58+bJ09PTcOy5c+f1t799pMTERBtUBgAAAACorw0bNmjXrt369a9n6plnnql17NChQzV06FBt2bJFq1evVmFhoY2qBFATwmQATYqHh4fmz5+ngQMHGY4tLi7WqlWrtHXrVhtUBgAAAACwhsLCq/rwww+1adMmvfTSf2r48BG1jg8LC9PYsWP18ccfKzp6I4f0AY2IMBlAk9C5c2fNmTNbwcHj1aZNm1rHXr9+XZs3b9HatWtUUlJiowoBAAAAANZ04cIFvf76G3rkER/99rcvq1+/fjWO7dixo+bOnauQkFBFRq7U3r17VVHBWVyArXEAH4BG1aFDB02bNk1TpkyRg4OD4fiDB+P10Ud/V27uBRtU1zxwAB8AWBcH8AGAdXEAHyw1alSQ5syZowceeNBwbGZmpj788AOlpJy0QWVA08MBfABalbZt22rixIl64YUX1bmzi+H4zMwsLV++XN98c9wG1QEAAAAAbG3//ljFxx9UWFiYIiIi5OTkVONYb29v/eUvH+jQoQT9/e//UHZ2tg0rBVovwmQANjdw4ED95je/kZeXl+HYkpJSrVsXpY0bN+rGjRs2qA4AAAAA0Fhu3LihjRs3aufOnZo5c6aee+65WscPHTpMQ4cO05Ytla0Qr1y5aqNKgdaJMBmAzXh6emrevHkKCAiwaPz27du1evVqff/99w1cGQAAAACgKSktLdXf//53bd68WXPnztXo0aNlZ2dX4/iwsDCNHz9emzZ9pvXrP1ZpaakNqwVaD3omA2hwPXv21KxZsxUUNLLWf/wlqaKiQvv27VNk5Crl5eXaqMLmjZ7JAGBd9EwGAOuiZzKswdvbWy+//FsNGNDfcGxxcbE2bNigzz77TGaz2QbVAbZHz2QALU7Xrl314ov/oeDgcbK3N/7fzaFDh/TPf/5T586ds0F1AAAAAIDmIjMzU//1X7/V0KFDNXfuXHl4eNQ4tlOnTpo7d66effZZRUVFaceOHbRNBKyEMBmA1Tk5OWnGjOkKDQ1T+/btDcenpKRoxYoVSk9Pt0F1AAAAAIDm6tChQ0pMTNSECRP04osvqnPnzjWO7dq1q/7rv/5L4eFT9K9/rdbevXtVUcFT8sC9oM0FAKtxcHDQ1KlTNXVquBwdOxqOP336tCIjV+nYsa9tUF3LRZsLALAu2lwAgHXR5gINpUOHDvrVr36ladOmqUOHDobjv/vuO61atUoJCQk2qA5oWLS5ANBsmUwmhYSEatq05+Xi4mI4Pjs7W5GRkTpw4IANqgMAAAAAtERlZWWKiorStm3bNH36dIWF1f50bJ8+ffR///d/Sk9P14cffqC0tFM2rBZoGQiTAdRbu3btFBISoueff15du3Y1HJ+Xl6fVq1friy++0K1bt2xQIQAAAACgpSsqKtLf/vY3RUdH69e//rWefvrpWs/t6devn/761+VKTDyqf/7zH/r2229tWC3QvBEmA6izdu3aafLkyZo2bZpFIfL333+vqKgoff755xx6AAAAAABoEJcvX9Z7772n9es3aPbsWRo9erTs7OxqHD948CANGjRQsbH79c9/RiovL9eG1QLNE2EyAIu1a9dOkyZN0rRp09StWzfD8cXFxfrkkw3atOkzmc1mG1QIAAAAAGjt8vJy9c477ygqKkpz587V0KFDaxxrZ2enUaNGa8SIJ7Vr1y6tWbNGly9ftmG1QPNCmAzAUF1D5LKyMn322Wdav369SktLbVAhAAAAAAB3OnfunP73f/9Xjzzio7lz5+rxxx+rcay9vb0mT56syZMnKzr6U23Y8ImuXLliw2qB5oEwGUCtQkNDNWPGDItCZEnavHmzoqLW6sqVqw1cGQAAAAAAxk6dStOiRQsVEPCE5syZrX79+tU6Pjx8qkJDw7Rr1y5t2LBeFy/m26hSoOkjTAbwC/b27TRx4gRNnz5Nrq7dDcffvHlTX375hf71r3/xjywAAAAAoEk6duxrHTv2tUaMGKFZs2bJw8OjxrHt27dXaGioJk6cqP3792vduiidP59tw2qBpokwGUC1uobIFRUVio+P16pVkfyjCgAAAABoFuLj45WQkKCxY8fqhRdeUI8ePWoca29vr7Fjx+qpp55SQkKC1q1bp/T0dBtWCzQthMkAZG/fThMmPK3p06ere3fjEFmSvvrqqFauXKmMjMwGrg4AAAAAAOu6deuWYmJitHfvXk2aNEkzZ85U586daxxvZ2en4cOHa/jw4Tp27Jg+/nidkpOP27BioGkgTAZaMXt7ez399NOaPn2G7r/fshA5PT1dy5ev0MmTKQ1cHQAAAAAADevGjRvasmWLdu3apZCQUEVEzFCnTp1qnRMQEKCAgAClpaVpzZo1Onr0qI2qBRofYTLQCrVv314hISEKD59iUTsLScrMzNSqVat05MiRBq4OAAAAAADbMpvNio7+VNu2bVVYWJiee26qXFxq3qksST4+Plq6dKlSUk5qzZrVOnbsmI2qBRoPYTLQinTs2FFhYWH61a+eNfxH8bbTp09rzZo1hMgAAAAAgBbPbDbrk08+0ZYtWxQWFqapU59T584utc4ZMKC//vSnPyklJUWrV69WUlKSjaoFbI8wGWgFXFxcNGXKFIWFhcrRsaNFc06fPqXVq9coMTGxgasDAAAAAKBp+WmoHBoaqueee96CUHmA3n33XaWknNC//vUveiqjRSJMBlowV1dXTZs2XU8/PV4mk8miOadOVfZ8Skyk5xMAAAAAoHUzm8369NNPtXXrVoWETNa0adMMn/QdMOBR/fnPy5SSckJr1qyl/QVaFMJkoAXq2bOnIiJmKDh4vMVzzpw5o7Vr1yohIaEBKwMAAAAAoPmp7Km8UVu3btOECRM0depz6tHj/lrnDBjwqP70pz/pzJkMbdwYrdjYWN24ccNGFQMNw85sNlc0xsKenn1lZ9coSwMt1kMPeWvGjAgNHz5cbdq0sWjOsWNJ2rBhPb8pbca6du2mLl26SJLOnTura9euNXJFANC89ezZU46OHVVRUaHMzIzGLgcAmr0+fTxlb2+vsrJy5eScb+xyAKto27atxowZo2nTnpeHR2+L5hQU5GvTps/0+eefq7S0tGELRIuXnx+t4uLHbb4uYTLQAjz22OOaPv15DRw4yKLxFRUVSkg4qHXrPlZ6enoDV4eGRpgMANZFmAwA1kWYjJbMzs5OQ4cO04wZ0/Tww49YNKekpFQ7d+7Qxo0bVVBQ0MAVoqVqrDCZNhdAMxYYGKjp02eof39fi8bfuHFDe/fu1fr1H+v8+ewGrg4AAAAAgJbt9mathISD8vf307Rp0xUQEFDrnI4dHRUeHq5nn31WBw4c0IYN65WRkWmjioF7Q5gMNDNt2rTRyJFBmj59mry8vCyaU15erl27dmnDhg381hMAAAAAgAaQlJSspKRkPfSQt6ZNm66goKBax7dt21ajRo3SqFGjlJKSok2bNunAgQO2KRaoJ8JkoJm47777NHHiRIWFPaP77+9u0ZzS0hJt3rxF0dHRKioqauAKAQAAAABARkam3n77bUVGRmrGjOl66qmxsrevPYIbMGCABgwYoJycHG3atEm7d++W2Wy2UcWA5eiZDDRxnp6eevbZZzVmzBiZTCaL5ly+fFkbN27U9u3baerfCtAzGQCsi57JAGBd9ExGa+fq6qrw8HBNnDhRHTp0sGhOYWGhtm/frs8++0xXr15t4ArRHHEAH4Bq9vb2Gj58hJ55JkwDBgyweN6FC//Whg2fKCYmRtevX2/ACtGUECYDgHURJgOAdREmA5WcnJz07LPP6plnnlGnTp0smnP9+jV9+eWX+uSTTzj7CHcgTAagzp1dNHlyiCZNmqRu3bpZPC8zM1Mff7xeBw7E6datWw1YIZoiwmQAsC7CZACwLsJk4E4dOnTQpEmT9Nxzz1V/lrPE119/pa1btysh4WADVofmorHCZHomA02Ar6+PwsKe0ciRIw37KP3UiRPfaP369UpMPNqA1QEAAAAAAGspKytTdHS0Nm/erDFjxmjKlCny8vIynPfEEwP1xBMDlZt7QVu2bNOOHZ/T2hI2x85koJG0a9dOY8aMUVjYM+rb9yGL5928eVPx8fH65JNPlJ6e3oAVorlgZzIAWBc7kwHAutiZDBjz9/fXlCnhGjx4kOzs7CyaU15eri+/3KtNmzbq3LlzDVwhmhp2JgOtRPfu3RUaGqoJEybI2dnZ4nmlpSXasWOnNm7cqIKCggasEAAAAAAA2FJSUpKSkpLUq5e7pkyZqnHjxqp9+/a1znFwcNCkSRM1adJEnTjxjbZs2aKDBxN048YNG1WN1ogwGbARf39/hYWFaciQIWrbtq3F8/LyLmrz5s+0Y8cOHl8BAAAAAKAFO38+W8uW/VmRkZEKDQ1RWFiYXFxcDOc9+uhjevTRx3Tp0iVt375d27ZtV2HhVRtUjNaGNhdAA+rQoYPGjRunsLBQeXj0rtPcU6fStHHjRh04EK+bN282TIFoEWhzAQDWRZsLALAu2lwA92b8+PF69tlfydvbuK/yT33xxRfaunWL0tJONVBlaEy0uQBaEDc3Nz3zzDMKDg6Wo6Njnebu3btXW7du0cmTqQ1UHQAAAAAAaC52796t3bt365FHfBQaGqpRo0aqXbvaW2BI0tixYzV27FidPn1aW7Zs0b59+3XjxnUbVIyWjJ3JgJXY2dkpMDBQYWGheuKJgRY3zJekS5cKtH375/r88+26coXHUFA37EwGAOtiZzIAWBc7kwHrcnZ20cSJEzR5cojuv7+7xfOuXr2iHTt2asuWrbp8+VIDVghbaKydyYTJwD2677779PTTExQWFqIHHniwTnOPH/9GW7duUUICDfJRf4TJAGBdhMkAYF2EyUDDGTZsuMLCwhQQ4F+neYcPH9YXX3yp2Nj9DVQZGhptLoBmpE2bNnriiScUHDxOQ4cOk8lksnhuaWmpvvhijzZv3qzz57MbsEoAAAAAANCSJSQcVELCQfXq5a6QkFCNHz/eonabQ4YM0ZAhQ7Ro0UJ9+eWXiomJUXp6ug0qRnPHzmSgDtzd3fX0009r7Nix6tq1a53mfvfdd9q2bZu++OILlZaWNlCFaI3YmQwA1sXOZACwLnYmA7bToUMHjRs3TqGhoerdu3ed5p49e1Z79uxRTMxuWnA2A7S5AJooJycnPfXUUxo3Llh9+z5Up7mlpSXau3efduzYoTNnzjRQhWjtCJMBwLoIkwHAugiTgcbx+OOPKywsTE8++WSd5x479rV27typhIRDfMZsomhzATQh7du319Chw/TUU6M1dOiwOs9PTU3T7t079eWXe2U2mxugQgAAAAAAgJodP35cx48fV5cuXRQaGqqJEydWb0QyEhDwhAICnlBpaYliY+MUE7NHKSknGrhiNAfsTAaq2Nvba+DAgRo1apSGDh1qUY+hnyosLNSePXu0Y8fn9EKGTbEzGQCsi53JAGBd7EwGmo6goFGaOHFinQ/sk6Tc3FzFxMRoz54Y5eVdbIDqUBe0uQAaQZs2beTn56dRo0ZpxIgR6tSpU53mV1RUKCkpWTt37lR8fLxu3LjeQJUCNSNMBgDrIkwGAOsiTAaanh497tfEiZMUHBysbt261WluRUWFUlJOKCbmC8XFxXIuVCMhTAZsqH//AXrqqTF68skRcnHpXOf5ly9fVkxMjD7/fIfy8nIboELAcoTJAGBdhMkAYF2EyUDTNmzYME2cOFGBgYH1mr9v317t3x+nhISDVq4MtaFnMtDA+vbtq9GjRysoKEjdu3ev8/ybN2/q6NGj2rlzp44cOaKbN282QJUAAAAAAAC2k5CQoISEBHXp0kUTJkzQhAkT1KNHD4vnjx49RqNHj1FJSYkOHozX3r37lZycRG7SQrEzGS2ah4eHxowZo1GjRqlnz571ukZu7gXt3h2jXbt269KlAitXCNw7diYDgHWxMxkArIudyUDzYmdnp/79fTVq1Gg9+eSTFh/a91NXr15RXNwB7d8fq5SUE6qoIAO0NtpcAFbSo8cDeuqpygC5T58+9brGxYv5iouL1f79+5Wenm7lCgHrIkwGAOsiTAYA6yJMBpo3f38/jRjxpMaMGaP77ruvzvMvX76sffv2KT7+oE6eTGmAClsnwmTgHnh6emrYsGEaPny4HnrooXpd49KlSzpw4ID279+n1NQ0K1cINBzCZACwLsJkALAuwmSgZWjbtq38/Pw1enSQhg8fUa9g+cqVK0pISFB8fLySk5N148YNq9fZWhAmA3VgZ2cnX18fDR8+QsOHD9ODD9avhcXtxy5iY+N04sQ3PHaBZokwGQCsizAZAKyLMBlomQIDAzVy5EiNHDlSDg4OdZ5fUlKqQ4cSdOjQISUmJqq8vLwBqmy5CJMBA/b29vL399ewYcM0bNiwevXskaSioiLFxx9UbOx+HT9+nIbwaPYIkwHAugiTAcC6CJOBlm/EiBF68snKVhj1ce3aNX399Vc6fPiIDh06pCtXrli5wpaHMBm4CxcXFwUGDtHgwYPUu7eHPDx61+s6JSWlio+PU1xcnBITj1q3SKCRESYDgHURJgOAdREmA62Hg4ODAgOHaPToIA0aNFjt27ev8zUqKiqUkZGpxMQjSkw8otOn03Xr1i2r19rcNVaYbG/zFYFa2NnZqV+/hzV48CANHjxY/fr1k52dXb2uVVpaqsOHD2v//v06evQofXgAAAAAAAAaUHl5uWJj9ys2dr8cHR01cmSQRowYrsDAQIuvYWdnp759H1Lfvg9p5syZKi4u1qFDh/XVV18pMfGISkpKGvAngBHCZDQJgwcP0qhRYzR48CA5OzvX+zqlpSVKSDikgwcPKj4+3ooVAgAAAAAAwFKlpaXatWundu3aqY4dO2rEiCc1ZswoBQQ8UafrdOrUScHB4xQcPE6SFBsbq9OnT+ubb75Renp6Q5SOWhAmw+bat2+vAQMGyM/PT/7+/urbt6/atGlT7+tdulSghIQEHTyYoG+++YYdyAAAAAAAAE1ISUmJdu/epd27d8nJyUnDhw/TmDFj5edX9zYNQUFBCgoKkiQVFxcrKSlJBQUFSkxMJBeyAcJkNLg2bdqob99+Cgjwl5+fv/r3961Xz5yfOnfuvBISDurgwQSdPn3KSpUCAAAAAACgIRUVFWnnzl3auXOXunTpopEjRyooaKQGDHi0ztfq1KmTRo4cKUmaMmWKysvLdezYMcXFxenLL7+0dukQB/ChgfTr97D69/dVjx499PTT4+Xo2PGer3n8+Dc6ejRRhw8f1rlz56xQJdAycAAfAFgXB/ABgHVxAB8AS3Ts2FGDBg3UoEGDNGjQYHXu3Pmer5mXl6cTJ1J08mSKUlJSWlSexAF8aLbat28vX18fDRjwqAYM6K9HHvGRo6PjPV/30qUCJSZ+pcTERCUlHVNpaakVqgUAAAAAAEBTU1JSov37Y7V/f6zs7Oz00EPeGjRosAYNGqxHHnlYbdu2rfM1e/TooR49emjcuLGSpKtXryo1NVUnTlSGyxkZZ3Tz5k1r/ygtGmEy6qxzZxd5ePTWI488ohEjhuvhhx+x2rVTUk4oMTFRiYlHlZWVZbXrAgAAAAAAoHmoqKjQmTMZOnMmQ1FRUerUqZMGDhwkf//K87d69OhRr+u6uLho2LBhGjZsmCTp/PlsFRTkKyMjQxkZZ3T69Gnl5uZZ80dpcQiTUStHR0c9/PDDVX/66eGHH1a3bq5Wu/53332npKQkJScn6/jx4+w+BgAAAAAAwB2Ki4u1b99e7du3V5J0//3d9fjjfnr88cf02GN+6tHj/npdt1cvd/Xq5a6AgIDq94qKipSamqr09HSdOnVKaWlpKikpscrP0RIQJqNahw4d5OXlKZOpg8aOHauHH35YvXq5W3WNvLw8ff31MX3zzXEdO3ZMV69eter1AQAAAAAA0LJdvJivmJgYxcTESJJ69+6tgIAABQQEyM/PTyaTqd7XdnJy0pAhQzRkyBBJUllZmc6cSVdx8Q/KyspSRkaGvv32O+Xl5VrlZ2luCJNbqR49HpCXl5e8vDzl7e0tLy8vPfDAA1Zf5+LFfJ08maLjx48rOTlZFy5csPoaAAAAAAAAaL3Onj2rs2fPatOmTZIkX18f+fr2V//+/fXYY4+pU6dO9b52hw4d9NhjlQfdDR8+vPr9srIyZWSc0bffnlVWVobi4g7ohx9+uLcfpBmwM5vNFY2xsKdnX9nZNcrSrcr993eXu7uHPDx66b777pO7u5uGDBmqDh06NMh63377rU6cOKGUlBM6ceKkLl++1CDrAPhR167d1KVLF0nSuXNnde3atUauCACat549e8rRsaMqKiqUmZnR2OUAQLPXp4+n7O3tVVZWrpyc841dDoBWqHfv3vL19VX//gPk6+sjNze3BlsrMzNL586dVWZmpjIzs5SRcUZFRUVWXyc/P1rFxY9b/bpG2JncggwdOlSenp7y8PCQu7u7evXqJQcHhwZb79q1azp1Kk2pqWlKSak8BZOexwAAAAAAAGhKbu9c3rFjhySpc2cXDRjwqB599FH17z9Affs+ZLW1vL295O3tpTFjxlS/d+XKFWVlZeqrr75WRkaGbt68pYKCi8rLu2i1dW2FMLmZ6NHjft1//wN68MEH9cADPfTggw9Uf9+5s4tNajhz5ozOnDmj9PTTOn06XVlZWTZZFwAAAAAAALCWK1eu6sCBAzpw4IAkydHRUb6+vvL19dWjjz6mxx9/zKrrde7cWU88MVBPPDHwF3934cK/lZubqwsXcpWbm6u8vFzFxsZZdX1rarQw2dPTUzdvXlNhYZEKCwsbq4wmoWfPnuratZtcXbupW7cf/zg7u8jOrkKdO3e1+kF4Rr799lt99913On36tNLTT+vkyVSbrg8AAAAAAADYQmlpqb766it99dVX1e/5+DwiX9/+6tu3rzw8esvb26tB1n7wwZ568MGeCgj48b3XX//xdUFBvi5duqRLly5Xfb2kS5cKFB/ftkHqMdJoYfJrry2Wp6dn9fdXr15RYWGRiooKVVhYqKtXC5Wdna2MjDv71N26VaHy8lKVlJSqtLTyj9lstnX5hhwdHeXn5ycXF2c5O1f+cXJylrOzizp0+PFEyYce6itHR8dGq7OkpFRZWRk6cyZD586d1bffntWpU2mNVg8AAAAAAADQ2NLSTikt7VT19/b29urTp7e8vLzl6elZ9bWPnJ2dG7QOV9fucnXt/ov327UradB1a9JoYXLnzl3u+N7FpbNcXDrX61qnT5/6RaBsNl+rDptv/6mosM6Bfx4eHnJzc1fHjo7q0KGDXFxs02biXpSXl+v8+Wzl5JzXuXPnlZGRobNnv2uWvVkAAAAAAAAAW7px44YyMjKVkZF5x/uurq7y9OyjXr085O7eSx4e7nJ3d693zmmpvLxbDXr9mjRimGy9APbhhx+x2rWau++//15nz55TdvZ5ZWdn69y588rJOa+LF/Mbu/RzwRgAABesSURBVDQAAAAAAACgRSkoKFBBQYESE4/e8X6nTp3Uu7eH3N3d1auXh9zc3OTh4aGePXtaZd2LF1tZmIz6MZvNysvLVW5uXnVT7gsXcpWXl6cLFy6orKyssUsEAAAAAAAAWrXi4mKlpJxUSsrJO963t28nN7ee6tWrl3r16lUVNld+rUsrXMJkVLt4Mb8qKL5QHRTn5l5Qbm6evv/++8YuDwAAAAAAAEA93LhxXWfPntXZs2d/8Xeurq5yc+spV9fu6tatq7p1u/21q7p166Zu3Vyrx1640MrC5N/97lV16dJZzs7O6tTJSV26uMjZ2UUuLi5ydnaWi4uLOnbs2FjlNYgrV66qqOiqCgsLVVhYVHXQ4FXl5+dX7TS+oAsXLjR2mQAAAAAAAABs7HbLjNp07dpNXbt2lvQH2xT1M40WJh89+pXs7IwPxLvvvvuqDrpzrPraUY6OHeToePuro0wmk9q1a/eTP/ZVX9tXf29vb6/27durXbvKsSZT5d9VvtdOV68WqnNnF5lMJl27dk3Xr1/XtWvXdeNG5esfv78us/m6ysvLVFZWqpKSUpWVlaq0tEylpSUqLS1VSUmZyspK9MMPP1SHxsXFxTb4rwoAAAAAAACgpbp8+ZIuX77UaOs3+TYXP/zwg3744YfGLgMAAAAAAAAAWrU2jV0AAAAAAAAAAKDpI0wGAAAAAAAAABgiTAYAAAAAAAAAGCJMBgAAAAAAAAAYIkwGAAAAAAAAABgiTAYAAAAAAAAAGCJMBgAAAAAAAAAYIkwGAAAAAAAAABgiTAYAAAAAAAAAGCJMBgAAAAAAAAAYIkwGAAAAAAAAABgiTAYAAAAAAAAAGCJMBgAAAAAAAAAYIkwGAAAAAAAAABgiTAYAAAAAAAAAGCJMBgAAAAAAAAAYIkwGAAAAAAAAABgiTAYAAAAAAAAAGCJMBgAAAAAAAAAYIkwGAAAAAAAAABgiTAYAAAAAAAAAGCJMBgAAAAAAAAAYIkwGAAAAAAAAABgiTAYAAAAAAAAAGCJMBgAAAAAAAAAYIkwGAAAAAAAAABgiTAYAAAAAAAAAGCJMBgAAAAAAAAAYIkwGAAAAAAAAABgiTAYAAAAAAAAAGCJMBgAAAAAAAAAYIkwGAAAAAAAAABgiTAYAAAAAAAAAGCJMBgAAAAAAAAAYIkwGAAAAAAAAABgiTAYAAAAAAAAAGCJMBgAAAAAAAAAYIkwGAAAAAAAAABgiTAYAAAAAAAAAGCJMBgAAAAAAAAAYIkwGAAAAAAAAABgiTAYAAAAAAAAAGCJMBgAAAAAAAAAYIkwGAAAAAAAAABgiTAYAAAAAAAAAGCJMBgAAAAAAAAAYIkwGAAAAAAAAABgiTAYAAAAAAAAAGCJMBgAAAAAAAAAYIkwGAAAAAAAAABgiTAYAAAAAAAAAGCJMBgAAAAAAAAAYIkwGAAAAAAAAABgiTAYAAAAAAAAAGCJMBgAAAAAAAAAYIkwGAAAAAAAAABgiTAYAAAAAAAAAGCJMBgAAAAAAAAAYIkwGAAAAAAAAABgiTAYAAAAAAAAAGCJMBgAAAAAAAAAYIkwGAAAAAAAAABgiTAYAAAAAAAAAGCJMBgAAAAAAAAAYIkwGAAAAAAAAABgiTAYAAAAAAAAAGCJMBgAAAAAAAAAYIkwGAAAAAAAAABgiTAYAAAAAAAAAGCJMBgAAAAAAAAAYIkwGAAAAAAAAABgiTAYAAAAAAAAAGCJMBgAAAAAAAAAYIkwGAAAAAAAAABgiTAYAAAAAAAAAGCJMBgAAAAAAAAAYIkwGAAAAAAAAABgiTAYAAAAAAAAAGCJMBgAAAAAAAAAYIkwGAAAAAAAAABgiTAYAAAAAAAAAGCJMBgAAAAAAAAAYIkwGAAAAAAAAABgiTAYAAAAAAAAAGCJMBgAAAAAAAAAYIkwGAAAAAAAAABgiTAYAAAAAAAAAGCJMBgAAAAAAAAAYIkwGAAAAAAAAABgiTAYAAAAAAAAAGCJMBgAAAAAAAAAYIkwGAAAAAAAAABgiTAYAAAAAAAAAGCJMBgAAAAAAAAAYIkwGAAAAAAAAABgiTAYAAAAAAAAAGLJv7AIAAGiWnHwUEjFDIUF+8nJzlZNJkrlIOVnJOrxtnSKjk1Vw14luGvfqKwp2rc+iWdq29CPF3f3CxkxuCgyZofBgP/l6ucnVyUlSkcwFBcpKTVbMtnWKjsuS2YJLufpMVnjEZAX5e8nN1UkmSWZzkQqy0pQUu11R0XuUVVTPOgEAQLPhNnKe5od4Vd4LJK/TW1HJtd5LeIW/rvmBTvVaKy36NUUeseROpQ5cx2n+q+PkJanu91quCoyYp3A/p6r63lbkEW6AALRsdmazuaIxFvb07Cs7u0ZZGgBalK5du6lLly6SpHPnzuratWuNXFHL5zbuHS1fFiF/55rHFKZG6/cLXtO2rJ9/4PHRG/t3aY53fVZO1ZKgCVqRVfeZroHztGzZKwpyd6hlVLnyD6/SogV/rPlDlMlHEX/+UK+GequWH1/KP6zli17W0non30Dj6dmzpxwdO6qiokKZmRmNXQ4ANE0mL4W88aH+MNO3+p6gPOb/qf+c7b8Ik/v08ZS9vb3Kym7Ja+F6RU3tXq8lYxcN0Mxoa4a1bgpfuVnLgm/Xk6rlQRO01IJ7LZPbOL267B3NGfLjz5L05hMKjeTeB4Bt5OdHq7j4cZuvy85kAADqwGnkO1q7PELeVZlsYfZhxcamKafILCdXH/kHBcq3u4OcfcP157VSeej/aM/PPlMUFOWrsNBk8ZomZ2dVLmeWRduG71Lzpyt/rFmFmTp8JFmZ2UUym1zl7eunQH93OchB3YfM18q1Js0MfVu/2Phj8tHstRv05pDqj4zKTorT4dQcFZlNcvL20ZBAf7k7SOo+RAtWrpamPqOlyVbeQQQAABqVk98sLVv2OwV71/ZL6rszFxUov9Aki++ETM5ydpCkctXrRqgWbuHv6I3gugbbTvIJf13L3giXb62/WQeAlokwGQAAS5kC9eqS26FsoZJWvqw5b8Xd2c7CyU+zV/5Dbw7pLgf3cL356nYd+e84/biHJk0rQgdqhaVL+vxOW7fOl6+DlB+zStE591JzubJj3tacReuU9rNNPW4j39HKlRHydZAcfGdo8ex1Cv3ZFmif2e/q1dtBcmGSVi74jd762c5jk9s4vbHyQ82svJBmL56iqKnrVNeyAQBAE2Ry07iF72rJgiHqLknlmYqJKVJgqH/tTyxVu6Yjb01QwFsWrucUqD9s/UQzvSVlb9fKGCuGyW5TtOSNIAvrruIaqPlL3tXCYHc5SCrPjlVMjo9Ch9RvpzUANEccwAcAgIVcQ+YpxL3ydeHhP2rBz4NkSSpKVuSCtxWTX/mte8g8hbvVc0GTjxYumyVfB0mFsVr65vYa+jDXzCl4VnXNylynBQt+GSRLUk7ca1rwXqrKJUkO8g8eqTvKNgVqdoRv1Q7pfMX8/pdBsiSZc/bo94tWKbXqewe/yQqqV39oAADQ1JhC3tHyqiC5MDVai0InaMG2hvqVsZMCX323MkhWtj5d/LbirNbhwk0RS15XkLOk/Bh9GltowRyTxr3xDy0OdpeDypUZ85amjv+NIlPpkQygdSFMBgDAIq4KDg+s2r2Sr9iVG2vebVuwRytjsitfO/gpJKR+abLP7Hc0uzJJ1uGlr919V7JroELCpyg8fIrCx/npztzWJJ9An+odN6nR61Rbx4ms2DhV70V285HXT58/9Rop/9uhdH6c1sbUEmunbdfhzKrXDm7y8bK8pQcAAGi6TJIcVKiktf9PoaH/o+i0hmtlZQr8nZbMrLz5yN/6tpbeLUmu9T6oZl4R7+rVIGdJhTr83vuKq8uPUZipTxc9o/FzVimZHBlAK0SbCwAALGEKVJDP7UbJydpT66cOs5Jjjih/pru6y0E+Q0bKacU61enzhtcsvbnQv/IRyqT3tTjq7tG1yW+G/rAspDIwzo5WeFyyCqpLM+vI78fI9z1Xubo6STkGp8kUFNTciTDtfYX6b5Sbm6tclfPLfsp3KFJO9Q9rkoksGQCAFsGcH6clEa9pRVwDN7Ay+Wnhm1PkLVU+nfXWnrs+nVX7fVANvGZoyatD5KzKJ80WR2XJK8iysgqOfKQF7626ywHLANB6ECYDAGAJHz953d7im5WsJIPPEObkZGWVh6u7g+Tg4ycf0zqDAPanXBX+5isa4iCpPFWRb66TBYeK11SJigpyVGRBfwyTl9ePO3pysnTn5ySzigqylFZg0fHm8qq+UIGycvjABQBAS2COW2XxuQ/3wivi9aqns8p1+L23FV3XPl81X1mzl/xOQ5xVGVIvWqcsmeRl0VyzkqM+UrK1SgGAZoo2FwAAWMDk7lbdQ7i8IMe4d7E5R9m3d+c6ucm7DrtznUb+TguDKpPr7G1/1IraelPop+ea30to66XwBZNV+TBpuZK27an3oXkmv8kKut0SIzVOsfVPwgEAQGvjOkWLbz+dlblKS6Jqv5Goy32Q1+x3tLAySVbs0tdUw4NfAIBasDMZAAALOLm6Vh0+JxXkW7A9xlyggiJJ3SU5OMnNVbKsz4WP5i+uCnULY/Xee3G1TjPveVkB7i9bcuEaOflM1vw3f6fZQyoD7MKk9/WmwQe3GlU9llqZJRcqZsUqpd1TdQAAoPUwKXDhKwp2lqR8xSz5qNbzHup0H+QzT8tut7eIfbvGFmIAgNoRJgMAYAEn1x+3FpvNZgv2vphVVD3ISU5OJlmyY8Y15BVF+FbG1pnR78v6B6SbFDj/H1oc7CSTyUlOrm5y714Vk5fnK2nbH7X4rY2q33k6bgr584daUFV/fuzbenOb1Z5LBQAALZ3bDC0Kr3pOKukjvbfHSifcmXw0f8kr8neQlB+jtxbXcpAyAKBWhMkAAFjApDvDZGNm3THMojYXPpo9f2TlITKFsYpckXxPjStq4uTjJ39/5zveK8yMVfSK97VimwUH19yNyUvhy1frD8FVHwBTI7VgAR/UAACApUwKnD+r8swI5Stm+cZ7ODPizuv6zH5HCyuTZMUsfU3R3KAAQL3RMxkAAIv8mLCaLOx/XIc2yZXjx81S+O1dvTGrrHjYzJ2KctKUmpqq1MxMZecXSpKcvYM0Z9kWHTq0WX8O96lb7a4j9eqnm7Us2F0OkgpTIzVn5ts6YqXNRAAAoBVwnawFIVWHLmRuV6SVdiWbfF7RsqoezPkxb2txQ91gAUArwc5kAAAsUFT00zC5cp9y7Rt4TXKqTmTNd8y/O1eFzByn7pKkTG2LOtIgu5Ils44sfV7jl/74jsnVT8Gz52nh7GB5d/fX1GUb5O70vGZGphnW4OQzQ8tWvq5g99utLd7SnAWrlEyQDAAA6sArfIYCnSWpXEnR65RsjYua/LRw2Sz5OkjK36a3Fm83PkQZAFArdiYDAGCBooIilVe9dnJyNZ5gcpWTU/VsFRh9cnGbrPDAqtYTmXsUXdtpM1ZmLkjWtqW/UejMSGWWS5Kzhrz6uiLcap/nNu4dffrpH6qC5EKlrp2r0JkEyQAAoK58FB5SuXtY5Wnats0aDS5M8lv4jmb7OkjK1tbFb4ujHADg3rEzGQAAC5izc1QgyV2Sc3dXOUkGO1vc5H47cy7MUbZBwOoWPE5+VefgZcZuV9o91lsfRUfe13txU7Q82FlyGKKQYDdFRt6tqaBJPhH/0NolQZU7qcuzFfPWb7QgyngnMwAAwC/4TFawb+XL8rTtirFGT2OfV7Rktq8cJJWnJivNfbJmz65hqNvtx8mc5Bs+S7MLJJnNyoxdpzj6KwPAHQiTAQCwgDktTTnlkruDJC8/+ZjWKa6W5NTk4yevqnBYWclKqzVldVVQsF/lbhxl63CMdY6bubMgk2R4cGCRMjMLpODKHdKuXm4yKednAbFJXj8NkgtTtXLBC3orjq0+AACgfrxCRsq76nXW4TirHOBrcnOTW9W9mINviBb7hlgwy11BC95QkCSpUDELNiouh1+VA8BPESYDAGCJoiOKzZKG+Erq7qcgLymulu3DbkP8VHWEjDKTkmv/UGQKVJBP1aedwjQdsVaLC1Og3tj6ocK9nOTskKUlQRO0otac2iQnp58evffLOlzHvaOVb9wOkpO0ZOYLWkFfCwAAUG+uGuLvVfU6W0mxVtoKbC5SQX6hZScim5zlXHUrVl5YWHkHZC5SYXltkwCgdSJMBgDAIlmKiU3VYl9fSd4KjgjU0t/XcEieyU8R4VXPaipTsdG1HyFj8guUj/PtZZKVaq0NMOYc5Zid5OzgIMlLIcFeWlFrmuylIP/bEXi5ctJ+tivZbYqWLAmXd+Xzolo5hyAZAADcI5OfAm//Ur08S8m1P85lMXPcaxoV8JolBWjcyq8UGewsKVWRoRO0tAEeEgOAloID+AAAsFBW5CrFFla+dg9/XQv9nO4yyiS/ha8roupZzcLDqxRp0ADZydtL1e2Vs7Pq9minq5/GhUxRePgUhYzz051HA+YoJjq56uBAB/nOf1fz/WranmOSz+zXFXE7Ay9PVkzsT1tXOGncq79TcGWTZCUtfVlvHSFIBgAA98jNT963f6lekKPsumTJtd4HAQAaAjuTAQCwVMFGLXlvhvze9Jezg68WrN0stxXvKzLmiLIKJCcvP4XMfkXzQ32rTiNP0oo3NxqEwya5ebnpdnvlgoKCOh1iZ/KbpWXLQ+QsSdnRCo9LVsFPLpAT/UdFRmzQAl8Hydlfiz/dqSFRq7Q2JllpWQUym5zk5hOokKmzFB7srduf5TKj31f0Twv3madFod0rX5fnqMBtil591bIai5I2asUetvgAANC8+Sjk1cny+fnbbl7VnSQcvCZr4as/H5Gj9C8O62QNv4M2ebnJ7fY3BVmqS4tio/sgq/Iap9nhvwysXf1/fMc1aJ5edf1ZAQXJiorcY5U+0ADQFBAmAwBQB2mRv9Einw1aPtVbDs7eCl38V4UuvsvA8kx9uuBlrbDgUU1X1x93OBflWPkgO3Oyls75H7mufVdTvR0kB28FzfmDgubUNKFc2TFva8FbR/TTz3xOvj66vWlZDt4KnuOtYAtLKNyarMg9WXUKyQEAQBNj8lH4gvlVh9PVwDtYC7x//mam1h2rJUx2dqoOo8uLitRUj/Q1eU3WwgUh1b94vxv3oNlaEPSzN/OjdThqT51CcgBoymhzAQBAnRRoz38/o9BFUYrNLLzL3xcqMzZSi0Kf0X/vsWwPioPzj60nzOYG+KSRs13/PX6CZi+J1uHsu9UsSeXKT43RykXPaPycdbJSu0IAAIBamZycqp/QUkPcBwEArMrObDZXNMbCnp59ZWfXKEsDQIvStWs3denSRZJ07txZXbt2rZEral2cvPzk5+UmZwepvDBHWcnJymrirYRNrj7y83FTd2eTJLPK8wuUlZamrCI+wAGS1LNnTzk6dlRFRYUyMzMauxwAaPb69PGUvb29ysrKlZNzvrHLAYAWIT8/WsXFj9t8XdpcAABwD4qykhWXldzYZdSJuSBNR+IMTgUEAAAAAOBnaHMBAAAAAAAAADBEmAwAAAAAAAAAMESYDAAAAAAAAAAwRJgMAAAAAAAAADBEmAwAAAAAAAAAMESYDAAAAAAAAAAwRJgMAAAAAAAAADBEmAwAAAAAAAAAMESYDAAAAAAAAAAwRJgMAAAAAAAAADBEmAwAAAAAAAAAMGTfWAvfvPmA7OxuNtbyANBiVFQ4VL++daurbt681YjVAEDzV1HRvvr1zZv3N2IlANBS3N7HZs//VwHAatobD2kAdmazuaJRVgYAAAAAAAAANBu0uQAAAAAAAAAAGCJMBgAAAAAAAAAYIkwGAAAAAAAAABgiTAYAAAAAAAAAGCJMBgAAAAAAAAAYIkwGAAAAAAAAABgiTAYAAAAAAAAAGCJMBgAAAAAAAAAYIkwGAAAAAAAAABgiTAYAAAAAAAAAGCJMBgAAAAAAAAAYIkwGAAAAAAAAABgiTAYAAAAAAAAAGCJMBgAAAAAAAAAYIkwGAAAAAAAAABgiTAYAAAAAAAAAGCJMBgAAAAAAAAAYIkwGAAAAAAAAABgiTAYAAAAAAAAAGPr/sjhxjNepcEYAAAAASUVORK5CYII=;rounded=1;" parent="1" vertex="1">
                    <mxGeometry x="331" y="788" width="587.84" height="269" as="geometry"/>
                </mxCell>
                <mxCell id="34" value="sun-sky" style="rounded=1;whiteSpace=wrap;html=1;fontColor=#ffffff;fillColor=#d80073;strokeColor=#A50040;" parent="1" vertex="1">
                    <mxGeometry x="239" y="847" width="75" height="23" as="geometry"/>
                </mxCell>
                <mxCell id="35" value="sun-gnd" style="rounded=1;whiteSpace=wrap;html=1;fontColor=#ffffff;fillColor=#d80073;strokeColor=#A50040;" parent="1" vertex="1">
                    <mxGeometry x="239" y="989" width="75" height="23" as="geometry"/>
                </mxCell>
                <mxCell id="37" value="sun-sun" style="rounded=1;whiteSpace=wrap;html=1;fontColor=#ffffff;fillColor=#d80073;strokeColor=#A50040;" parent="1" vertex="1">
                    <mxGeometry x="940" y="847" width="75" height="23" as="geometry"/>
                </mxCell>
                <mxCell id="38" value="sun-path" style="rounded=1;whiteSpace=wrap;html=1;fontColor=#ffffff;fillColor=#d80073;strokeColor=#A50040;" parent="1" vertex="1">
                    <mxGeometry x="940" y="958" width="75" height="23" as="geometry"/>
                </mxCell>
                <mxCell id="39" value="sun-sunset" style="rounded=1;whiteSpace=wrap;html=1;fontColor=#ffffff;fillColor=#d80073;strokeColor=#A50040;" parent="1" vertex="1">
                    <mxGeometry x="730" y="1067" width="75" height="23" as="geometry"/>
                </mxCell>
                <mxCell id="40" value="sun-sunrise" style="rounded=1;whiteSpace=wrap;html=1;fontColor=#ffffff;fillColor=#d80073;strokeColor=#A50040;" parent="1" vertex="1">
                    <mxGeometry x="500" y="1067" width="75" height="23" as="geometry"/>
                </mxCell>
                <mxCell id="41" value="sun-vline2" style="rounded=1;whiteSpace=wrap;html=1;fontColor=#ffffff;fillColor=#d80073;strokeColor=#A50040;" parent="1" vertex="1">
                    <mxGeometry x="448" y="752" width="75" height="23" as="geometry"/>
                </mxCell>
                <mxCell id="42" value="sun-hline" style="rounded=1;whiteSpace=wrap;html=1;fontColor=#ffffff;fillColor=#d80073;strokeColor=#A50040;" parent="1" vertex="1">
                    <mxGeometry x="239" y="918" width="75" height="23" as="geometry"/>
                </mxCell>
                <mxCell id="43" value="sun-vline3" style="rounded=1;whiteSpace=wrap;html=1;fontColor=#ffffff;fillColor=#d80073;strokeColor=#A50040;" parent="1" vertex="1">
                    <mxGeometry x="587.42" y="752" width="75" height="23" as="geometry"/>
                </mxCell>
                <mxCell id="44" value="sun-vline4" style="rounded=1;whiteSpace=wrap;html=1;fontColor=#ffffff;fillColor=#d80073;strokeColor=#A50040;" parent="1" vertex="1">
                    <mxGeometry x="730" y="752" width="75" height="23" as="geometry"/>
                </mxCell>
                <mxCell id="70" value="" style="shape=stencil(lVdJcttADHwNryjMDpwd5x+ushypolguWc7y+4ChaXFAsVO+kcPGEFujZ4Z097p/eNkNkV8v59P33a/D42U/pC9DjIfn/e58uNjTkO6HdPd0Ou++nU9vz4/T+8vDiByffpx+jjv8nuyYYhuNIv+ZFlQoxH8rXyf88fC8wFdS7vGJQtjGh0gtdgaiFOq2wehR6g0yVfCHqMR9CE1I2rZBEmraG0SKsm2QhVIfdC2UQZJKI+1dspXKIKvVlyFbVMCllihLb8CUQNBtlaUUKeRtA0nz59kgZsrIoBL3WQqNBAQtQhp6A6YMDJQp9IULlEBnGL70P2ASkFT92O6KL8ifOH++4iPCJ98WTAwyqoVK9XgUbyNWh0dcNqrn6PAJUFN1Ls8V35A/StpTOWB/DF8cvoCeHv2pDq8K4y19vJESyn+j6PEF7V+oqsM3FG+mwB6P+62u/EH+Wz97fyKqL/t+CyQo3ht8zHj/lB2eUX54Lue135ASWH7Y8ysi/5PvH4ZD1+rLyeNRveo89Bd41M8y03vhP+7/4PlbkP9K4vdXgA/Mq5EOde/TBsaw5hhvJUYhZxI3UmQm0RYHtK+xyRhUpTYfHhZCibRbjFR9V5sUv8+921JcfJJM7BswsNNB6XlQBJ8/qldW2wJNutw8E+yAgUZFWmXJDhgKsmSnNDcrpMDhaLPKiZmNA+RSqJ4N1iwM0qq+lYwfjMbXfEhc4NGRy2qkHl9RX9zAC2qLWawX+Hf9vN0VFDzX8PxKXr7HH4CATb1WCRLgUKC2CqCCAvANfzLQg5XcXAfmBp5dA33cFLbw7PEZxPvZu9b/8fZwvdg9HY7H6V64/O4vgrY0XSLT/V8=);lineShape=1;strokeColor=#FF0080;fontColor=#FF3399;" parent="1" vertex="1">
                    <mxGeometry x="483.6199208894477" y="775.583363167334" width="14.129543505067849" height="50.8836525305685" as="geometry"/>
                </mxCell>
                <mxCell id="71" value="" style="shape=stencil(lVdbctswDDyNfjEkwBe+0/QemYlTe+raGcfp4/aFqsoxIWuT/Mn0Lt4AwUHuXrYPz5uBw8v5dPy++bV7PG8H+TIw7w7bzWl3tq9B7ge5ezqeNt9Ox9fD4/T7+WFEjl8/jj9HCb8nHlNMI4nDn+lAC7X27+TrhN/vDlf4GIhjT8hUwzqBI3HoCUwsgKBUakdojVJdJ4iS9D40oQw0JKXca6iVEiBkJdWOUExEWifY31x6QiAp6wQzoPQ+5EAJ5GF0sc9DCtSADxbE0DstEZqkgTR3BCsWBZlWodT7EGUO9G1CotZreMeiTEE6vJkYIT5lh88IXyiowzPGt+LwAVSFWpK9/IDkN8rB4SNIsSpFL18U4quXX1H8rQ36Eoqzwg/jC5Zf+5q26YQKTv0sYjgoxniyw1cUz0rV4xuy3+pBPR7VQ6Ho7S/I/jy794YXjA+uIeeEfLgf/wdsDa9efsD9y74+C4pPXvaXoHoolBf9BWao5TdFj0fyG3HyeFxv2vw8wf2S/bwqKP46j7+r+IN4xnDx7yrBwOFPE8xj6T22KwCW3CLFLHNSbhPsDup7Uhgm2e497k1KEXZ9s/Wk15BtbAENVfzYKqYhrxNK8ktXjXNl3d4/LCZ9GqrOJ7c3HPZ3d8Nbmsg8aS9bGl4nOPnKGKcBcDpGf/lZsTS01vlhPZY7UHCZtZfSC7id7XIpCwVgfEW/cRm+gfZc7E+GL8AeW/jU4wXKj9UHVEGdLnrZ8AW02i08WtzDIp4VXpeXBfcKj64bi6d4PLIn+u3J8Gjd+uxT6H28fby9u552+/30bLv+37/T7Gh648n9Xw==);lineShape=1;strokeColor=#FF0080;fontColor=#FF3399;" parent="1" vertex="1">
                    <mxGeometry x="764.1773253084684" y="780.7167250475702" width="25.16388731505117" height="45.19432796654523" as="geometry"/>
                </mxCell>
                <mxCell id="72" value="" style="shape=stencil(rVfLctswDPwaXTEgwec5Tf8jM3FqT1074zht8/eBqpEiQub60pssY0U8dgFwkIe3/dPrbvD8dr2cf+7+HJ6v+0G+Dd4fTvvd5XDVp0EeB3l4OV92Py7n99Pz9Pv1abQcn36df49f+DvhHImMIM8f0wtP7P+9+D6ZHw+nlXkmTo05E3Pf3GUqtbEP5IG9T5S4sa/kct9e1J/Y2LtEMfQBoVBwbbyJxPUBicn7BqBnBgEZchRaQKgUSh9QhDg0gCRUgUtVAbkB5IIBmsS2CqVSxIDYprUyBZBWBZQ26OqogEIroLYxaFQhYkAbQ41zZboumRPSvSylVgq1kCQI8MalOrPrNqBYNYxRoaCVrWkDAORTAG8AggqXKW+C9silTJFtWjOgtwJkUzgGmlaAEZBSQxCX1KViyZfwCcVkiXGWNCdtllRAkK2FUrAArpBLpnAKQH1ppFqwMcC0VsrBZunOCdUAPBVQacfLMFgQYdZU9wjDPu3Gd4Iw3MhUcRcw/X5shjhqFgsoWHJmZK3y0EO4TRtI/xXgbzR8D6IuflbYMlICnnJMueWrDkoHFBGrVURYRHV7UueZbKvB64FIRXcHM9ozJeCSTn7fuqTbDJrUus2YCeEiZUDXPAtssdepCDxyNgKn6xL4vptb9doe5JTnAbjYC+Q2b6gtUDxLF13slYiApwtlvqQD88MbbcIuvGlH2itAednukgkuSWw1FskBeiq1Wmdkbq+91Lfbi5/3n15lqzFHA83ZQuGt/+4lQR++Lhgvh+Nxup+s/7cXEn01XWbk8RM=);lineShape=1;strokeColor=#FF0080;fontColor=#FF3399;" parent="1" vertex="1">
                    <mxGeometry x="311.95940325208903" y="860.3681449365911" width="48.070947637780634" height="11.505295394261264" as="geometry"/>
                </mxCell>
                <mxCell id="73" value="" style="shape=stencil(lVjbctowEP0aXnckra7PafofmQkpTClkCOnl77uuK4dd2wfyZuRzLO39iA0/vO2eXreb4N4u59P37a/982W34S+bEPbH3fa8v8jThh83/PByOm+/nU/vx+fx9+vTgByefpx+Dl/4PfI8+TyQgvszLjRZ4X8rX0f8YX+8wicKM/z/lUW8d5TZErgAQqQaLSFGQGjUvCUkt04ImZzZwVFp6wQO1Jwi1EYhrROiI6+PVDP5AAiFYtMEsQG4NUUqQRFKoujXCdlTLYqQKyXgVnkdDUFCCQJXImXtpTTtuUxoVHQcIkMbaqSgjeZEDGyoxe4QKnFdJ0giRG2DFEhDhNBP3Ak+9z2XCXIkTXB4g0o+GnwAPhJ8tt93oBhaI1cMHpWn4GPVBlMAtSP4ojM7UAaJLfimG0wkBv1owOvvZ9i/BG/qoMAkFbzxZ7vln6D7nXTAiAiVinGoJ4c8JCnsZwS0g1iY7ZESyqFiYyxBRz4tPSU/fNpwDTgbM5jTxbbTCPvEcB59/kAFnz/ZnGbQ3gVvcm5qG2sRi+kzNVmpBYP3uMbYfr/hGiimy3UVsFpjpu9SAf7xbrJvGgWUbhSxLprSc3zVADNfuwZYdZAueqmAGxYvEFBKpD5MJ5feKHu2A1ySuqGkEEGggzxUJThSlUmgs1SmZQRG10ReRy0GWPfVdY0yhVkkApA5olFYxzm1PtKXRUibdQqZh2Bc5mADVzIkJDFaEyr3brMm1aoOnIhBpClEDJrqbJEcMJqZnJHMpQ+VNUFr+qN0kAoIC5K5dZl+rygXAjB6QfZLzSJBO7tXtD61ljew95arprNIcFTrbANQoG4291vX6Ct4rrMYAA+JjHMW7yDe6LRhKoIhO2vBLffyvhOfehreeR7uU/FOe7lfw+70Z6AA8TZeHqb0PB88vNN99qJ8Gy8PH7fyl/3hMF7qr9/bW7wsjf8A8ONf);lineShape=1;strokeColor=#FF0080;fontColor=#FF3399;" parent="1" vertex="1">
                    <mxGeometry x="301.4085392556419" y="922.7284984018063" width="60.78193069750323" height="15.951528416519903" as="geometry"/>
                </mxCell>
                <mxCell id="74" value="" style="shape=stencil(lVfZbhsxDPyafSUkUQf1nKb/ESBObdSNA8fp8fflYrtbk4bGyNtanpFEDi9N/PC+f3rbTSm8X86n77tfh+fLfuIvU0qH1/3ufLjo18SPEz+8nM67b+fTx+vz8vvtaUbOXz9OP+cdfi+8SDnOpBT+/FtI1JaVrwv+eHi9xgfqwRAy9T7Gp0S1G3ygFMZ4jhTE4QPA50DN4vX+bYwvgSQbfCMuY3yNFJt1UCYGB7RAbA9QD0UGBKFqJeBCARBEPW4JuVEEmnXVzF5JrRIBBFk1XQmiWyBCp1wsYdN9RHCySVkdPSJ0q4PIXYK1oUdibIOwJeTVqhGhOEKjgK8Ube7Mjq5Qh+JsUKtAaCghVE8QdEKjUv2VGvKShpqNpV6pIaUrSfFujSCj5/2SJQRYYmaCtUHavSv5WMprVRgZzfZKGt4Z6dBuwjvgE4Q4eEJCOS0+WpVQEww+jt6GgAlVvJfSnYxLXocIjI5hq+1XUjOyuvvu05kyvlN10VfvGZEcQbDU4qNvrm3Ir0LJZtCVH4bRlPwRCVWmzxKk+yTVrhQRIa8tamspDFtKa74clwSFqDflOEcq4IR609k5rdVwNApU66VUKAGpddZwwaTDCaquOsy4gh8FThs6vLjWrgRUN2K8mTaYOjhBG3/zTmIQe3FNr2s83D9YmdUHArJBxzerMusK2D+sybjZ22Gd3KbNDd9g2AXfQDUmUBDdVLCEBx/FO73C2lsGeD9+yjogD/Bs/R/rqsgA74q8jrcZ7B993kcmBjnz6ffFXbx+/H/MvByOx+UtdP2/f/zo0vJw4se/);lineShape=1;strokeColor=#FF0080;fontColor=#FF3399;" parent="1" vertex="1">
                    <mxGeometry x="302.5148212273298" y="1003.0286994081059" width="43.14704539449053" height="7.154005939004264" as="geometry"/>
                </mxCell>
                <mxCell id="75" value="" style="shape=stencil(lVjZctswDPwavWJAgudzmv5HZuLUnrp2xnF6/H2p2lRF0FrLb7K8JHEssKAGefrYvrxvBssf59Px++bX7vW8HeTLYO3usN2cdufyNMjzIE9vx9Pm2+n4eXi9/H5/GZHj04/jz3GH35d1OVP04yrLf65vyMV/L75e8PvdYY4PFFnhxQK8oRgU3pplfErEovBGAF5IjMIzsD/GevwMD/aPTGw1npfxwZJv7U+U0zLeOwpO7X8N2E28K/a3+xtDDjggmXKbYCMU0QJLWZ0QKfjlBTaQa12wQj6DBUbnWJgyIIUJOqjFqwB8MCULLes8w7QV0rf4wPXI22mm1LpceBKAB45EscISoxBVEk+ssLDMmGxq8SXtwN+C5w4PaMq1CGd4lADu7E+UQFlyV/WRErSflf2FIjA+Gu/JPGSPUILx6fOF7dfxtLAN9fkyFECbKPio8RHGR5y2x0K8Yx0fxGeuPWrCO7IO4pUq+VrRS3hlf4AdpeCVCiQy0B5RKoZlqeC7+oqQb7qrM25YhUC+OwAm4JqeuQMwoOy6AOH9TZcAvH9XkAEXsJLhQiBsj4qP3EmYUfaXAgCiV/Cq4ZYCgwR6DG8otwWcXG0BCwJj2/hEgfEP9fRJ8Cw5NMeRtPZ7Wym+qMBtgl1xGGu8a08QA08Yp4j2hKKa/s6c0sbIeDiLjpOQnhUtiGk/avkq+4uzXGuQwJofZ0XVJerwu3IWLW0P1Ew/6zK8C/Sz9NSGV87qk4ysvAtMMrXyrsEwX/1dZuqqt/HdXenOUJkpaX+RyIz4qPAe47MiNOzRI76Nj61dchHfikbhJ4jnTLOmoocic2OBh4zuLQpVyFd6HOFlqY9oqoP1yoylenlayYgMO8TDt/O7+PLw/1PA226/v3xJmP+vPx2UV5fPDvL8Fw==);lineShape=1;strokeColor=#FF0080;fontColor=#FF3399;" parent="1" vertex="1">
                    <mxGeometry x="664.8798313309496" y="857.8202683619015" width="276.8225571413674" height="14.94250685641191" as="geometry"/>
                </mxCell>
                <mxCell id="76" value="" style="shape=stencil(lVfZbttADPwavxJL7v2cpv8RIE5t1I0Dx+nx96UgrGtS1jh9k+XhisdwyN3Eh/fd09t2I+H9fDp+3/7aP593m/hlI7J/3W1P+7M+beLjJj68HE/bb6fjx+vz/PvtaUJOTz+OP6cTfs92vVGLk5WEP/MbbsTzm6+zwWH/em0g1LI1yNTrukFL1J1BJOnrBrVRadaAKSMDphiMQR9B3cSXSFEMvlEAEeTkc6T4so5PhQrbAAJFXjeIjbINgBPVDAyYkv2CBCqybiCZxBZBKsypnifVGMRCEtYNuFCwX0iZMoiBhaLNas6j8LeZR9F6VDIxwFcK3eBrGm9ul9lH3IQSoJEQF8s67RyUIWr2/N6JgT9KevH4lhCeo8d3cH4YFLvCIw4FzzmNt4L8h0V+lHLA/0DBxauUwnjnT6IE8ezOF+qgXtqzyeK1IjDe4uLVN4A/TCF6PMP6JlnggQwx1b7wB7X8YO9VvKgfZWjaBR9HRCt4z58E86nnO/8L7HchcfWqoyIr+el2zEyzEIwBzYY7v8P8MInlAwelLCTcUiAaxC8FgsGYCTcShAUiFF+ADBJ6ie6qwGgzCGPqXhEoQn9cQvulhJ/Hg/MjFSuIVQUInJ+p2nhLpQYEtA25vwy8Rh0RlP1ESrjAuomxrbBuFgWNpE7ZapA62dEeoXuJ/YIegWocFyrHlwVybRdyLC2wK3XZSraNZej2J5e5AKeMLotOdnET18VqxlB1ddttFh+h/y0PClxIAafYJMrW/0oRbVl90cVjdVzD+y6jBEit+OzPR4xTvOsyXaYLaIJJNJ3u8j2PujPQUYU217BQOr3SZOyTmzWMZ99k4L6QYSdPaXJBlHsuZSsuXO8V2u1DalABsycmWb3TqyXS0/+/i9430Id/V9+X/eEw35yv//dXZX01X7Pj418=);lineShape=1;strokeColor=#FF0080;fontColor=#FF3399;" parent="1" vertex="1">
                    <mxGeometry x="877.0803801280274" y="964.6873131572665" width="65.18224862901852" height="15.882986637645521" as="geometry"/>
                </mxCell>
                <mxCell id="78" value="" style="shape=stencil(lVfLctswDPwaXTEgwOc5Tf8jM3FqT10747ht8velqpEqgtamvsnyAgQWWEAc9OFt//S6G4Tfrpfz993vw/N1P+iXQeRw2u8uh2t9GvRx0IeX82X37XL+eXqefr8+jcjx6cf51+jhfbIrmWIerYQ/pjeecvr74uuEPx5OK3zO5KXBO0ccgYGQltYgUPTbBimSa08QpsTbBjGTutYgkYAcQqaSGgMNlEBIvlDQlqRAHpzgmYQbgxAou20DdZRbgxiogJBESGJjkBL5sG3gxLJUmBwIKZL3Lb62CjhgSXDBF5IMOKKiFo+KoJSzxRfgXyiVDg9q5iiFLh7AD9+IR0D8PLOx4jMUhOe2I0qiDP1zsngG+TIF4z+SAiE7klaWpYoG8u+SxSvIV2f2VnjEpyfVzr+i/uzxEeQbZ3Ws+BE0hih2+AzyjTN7q3ohfUUKXf94qF9uB0TtTwbxVLa7/o/Av+/qVWZFb9TXtf4dLy2+0UDcCSwLalDXJeABnud5uSIU+a/RdngH4q940xAJNiiTGoHFTwbEffgq71bwOc0j8jaf0VY4BVywKqhW8lHJA4mpt5QGhTvJq83BCwW0lOoWaElSmffabZIclfaE2riQ1WJ1XHlDOk5LlVZfUBHQmtV+cuHBXtRubvz9VKqS1eAV6KDOTWfxDBZBbUsjZKz7cW/JPf4TFYuH8eeZjhU/oOnqGDGbo65CjE/J4DPIdzUHl56DsrlhoHNJ/jMihat7zLhltC5b1HF3XiI+x9eHfzeWl8PxOF141v/bG059Nd2O9PEP);lineShape=1;strokeColor=#FF0080;fontColor=#FF3399;" parent="1" vertex="1">
                    <mxGeometry x="738.4101803857457" y="1041.1125429284887" width="18.888896277532393" height="26.887097016368294" as="geometry"/>
                </mxCell>
                <mxCell id="79" value="" style="shape=stencil(rVfbbtswDP0avxKSqBufu+4/CjRdjGVJkWa3vx89T5lF22coMKAPrnKOKJGHFw388HZ8ej0Mwb3drpfPh+/j8+048IchhPF8PFzHm34N/Djww8vlevh0vXw9P8//vz5NyOnry+XbtMOPmSdCSpn+3M95hSn53wsfZ/xpPC/xjkLq8ELF7eNroFg6vE8UAKEwCXeE4Il5n5AjxdoTKnHcJyQlmCtnCnWfECOJ7wi6UsCRdL8/PmmExMTAAjty/R2yJ5F9QtA7xI5QHPkECGoh94RCGVjwhXxPqLFJZZvAFHsviVoogBBI+jtIpQju4D1VY0HIgzh49Um0hAwsVPLB4gVJiSSt8CjOVLPFF+CiYIOmeAbZ6ahk61EUAhVFn5waMoH7G5kq3uPzSI/PxEilbbc7PlEB+7NNTMWHDGoFuRXeYT1Ui/egeKnggrOEiAgq6WQJgrJMkyZbl2bgoiktjaYLPhKTN6JQN6BKEVYtoeI7qCxWaZNQE6G6SssKZJ2b6O89x6lygYFIid9jIDSXL/ARuaiVqaWHwHmcbcpTCHAeG9kV4v+IT/Y89V7sdwIm/f4lt0qwK9JeEVlaKd4miL1Bdi2TtiOWKJuWrB0WXJmZSt87IrdqvK0h/bkncIRNP6mKzOCSWyZty9q3YnjXtUBZ60wQe91prqI4lGotqC4AvhZbvjwF0C9rtZnvYP+rYodBB88jOioGg0cDggSq0eCRQyW20rnAo2k52QaFpzRNw1ANPqLzVxtg10akbbyOD/35NV7In1oGjYDawk5lX1WWAAvFNP+IwaMB6t3PlX/i9ePv2+hlPJ3mp9Xyd/uW0qX5HcaPvwA=);lineShape=1;strokeColor=#FF0080;fontColor=#FF3399;" parent="1" vertex="1">
                    <mxGeometry x="508.0514873471477" y="1040.0126904000338" width="11.467917290441392" height="31.060305262716007" as="geometry"/>
                </mxCell>
                <mxCell id="81" style="edgeStyle=none;html=1;entryX=0;entryY=0.5;entryDx=0;entryDy=0;" parent="1" source="80" target="4" edge="1">
                    <mxGeometry relative="1" as="geometry"/>
                </mxCell>
                <mxCell id="80" value="&lt;div style=&quot;font-family: &amp;quot;Droid Sans Mono&amp;quot;, &amp;quot;monospace&amp;quot;, monospace; font-size: 14px; line-height: 19px;&quot;&gt;&lt;div&gt;        &lt;span style=&quot;color: #a31515;&quot;&gt;&quot;sunrise&quot;&lt;/span&gt;: &lt;span style=&quot;color: #a31515;&quot;&gt;&quot;07:32&quot;&lt;/span&gt;,&lt;/div&gt;&lt;div&gt;        &lt;span style=&quot;color: #a31515;&quot;&gt;&quot;sunset&quot;&lt;/span&gt;: &lt;span style=&quot;color: #a31515;&quot;&gt;&quot;17:41&quot;&lt;/span&gt;,&lt;/div&gt;&lt;div&gt;        &lt;span style=&quot;color: #a31515;&quot;&gt;&quot;solar_noon&quot;&lt;/span&gt;: &lt;span style=&quot;color: #a31515;&quot;&gt;&quot;12:36&quot;&lt;/span&gt;,&lt;/div&gt;&lt;/div&gt;" style="text;html=1;align=left;verticalAlign=middle;resizable=0;points=[];autosize=1;strokeColor=#6c8ebf;fillColor=#dae8fc;" parent="1" vertex="1">
                    <mxGeometry x="-213" y="325.5" width="203" height="69" as="geometry"/>
                </mxCell>
            </root>
        </mxGraphModel>
    </diagram>
    <diagram id="d1BLxbnD-2CteHCgN75c" name="weather display">
        <mxGraphModel dx="1636" dy="806" grid="1" gridSize="10" guides="1" tooltips="1" connect="1" arrows="1" fold="1" page="1" pageScale="1" pageWidth="827" pageHeight="1169" math="0" shadow="0">
            <root>
                <mxCell id="0"/>
                <mxCell id="1" parent="0"/>
                <mxCell id="OvK-dSOUElt9bOt7Nwyb-1" value="" style="rounded=0;whiteSpace=wrap;html=1;fontColor=#ffffff;fillColor=#0050ef;strokeColor=#001DBC;" parent="1" vertex="1">
                    <mxGeometry y="160" width="480" height="360" as="geometry"/>
                </mxCell>
                <mxCell id="OvK-dSOUElt9bOt7Nwyb-18" value="" style="rounded=0;whiteSpace=wrap;html=1;fontSize=30;fontColor=#FFFFFF;fillColor=#000066;" parent="1" vertex="1">
                    <mxGeometry x="240" y="165" width="230" height="205" as="geometry"/>
                </mxCell>
                <mxCell id="OvK-dSOUElt9bOt7Nwyb-19" value="" style="rounded=0;whiteSpace=wrap;html=1;fontSize=30;fontColor=#FFFFFF;fillColor=#000066;" parent="1" vertex="1">
                    <mxGeometry y="380" width="230" height="140" as="geometry"/>
                </mxCell>
                <mxCell id="OvK-dSOUElt9bOt7Nwyb-20" value="" style="rounded=0;whiteSpace=wrap;html=1;fontSize=30;fontColor=#FFFFFF;fillColor=#000066;" parent="1" vertex="1">
                    <mxGeometry x="240" y="380" width="230" height="140" as="geometry"/>
                </mxCell>
                <mxCell id="OvK-dSOUElt9bOt7Nwyb-17" value="" style="rounded=0;whiteSpace=wrap;html=1;fontSize=30;fontColor=#FFFFFF;fillColor=#000066;" parent="1" vertex="1">
                    <mxGeometry y="165" width="230" height="205" as="geometry"/>
                </mxCell>
                <mxCell id="OvK-dSOUElt9bOt7Nwyb-2" value="-2" style="text;html=1;align=center;verticalAlign=middle;resizable=0;points=[];autosize=1;strokeColor=none;fillColor=none;fontSize=80;fontColor=#FFFFFF;" parent="1" vertex="1">
                    <mxGeometry x="310" y="157.5" width="90" height="110" as="geometry"/>
                </mxCell>
                <mxCell id="OvK-dSOUElt9bOt7Nwyb-4" value="" style="html=1;verticalLabelPosition=bottom;align=center;labelBackgroundColor=#ffffff;verticalAlign=top;strokeWidth=2;strokeColor=#0080F0;shadow=0;dashed=0;shape=mxgraph.ios7.icons.sun;pointerEvents=1;aspect=fixed;fontColor=#FFFFFF;" parent="1" vertex="1">
                    <mxGeometry x="50" y="225" width="70" height="70" as="geometry"/>
                </mxCell>
                <mxCell id="OvK-dSOUElt9bOt7Nwyb-5" value="&lt;font style=&quot;font-size: 30px;&quot;&gt;Feels Like: -14&lt;br&gt;&lt;/font&gt;" style="text;html=1;align=center;verticalAlign=middle;resizable=0;points=[];autosize=1;strokeColor=none;fillColor=none;fontSize=40;spacing=0;fontColor=#FFFFFF;" parent="1" vertex="1">
                    <mxGeometry x="245" y="252.5" width="220" height="60" as="geometry"/>
                </mxCell>
                <mxCell id="OvK-dSOUElt9bOt7Nwyb-6" value="H:-1 L:-7 Hu:90" style="text;html=1;align=center;verticalAlign=middle;resizable=0;points=[];autosize=1;strokeColor=none;fillColor=none;fontSize=30;fontColor=#FFFFFF;" parent="1" vertex="1">
                    <mxGeometry x="240" y="312.5" width="230" height="50" as="geometry"/>
                </mxCell>
                <mxCell id="OvK-dSOUElt9bOt7Nwyb-7" value="overcast clouds" style="text;html=1;align=center;verticalAlign=middle;resizable=0;points=[];autosize=1;strokeColor=none;fillColor=none;fontSize=30;fontColor=#FFFFFF;" parent="1" vertex="1">
                    <mxGeometry x="10" y="315" width="230" height="50" as="geometry"/>
                </mxCell>
                <mxCell id="OvK-dSOUElt9bOt7Nwyb-8" value="Waterloo" style="text;html=1;align=center;verticalAlign=middle;resizable=0;points=[];autosize=1;strokeColor=none;fillColor=none;fontSize=30;fontColor=#FFFFFF;" parent="1" vertex="1">
                    <mxGeometry x="10" y="170" width="140" height="50" as="geometry"/>
                </mxCell>
                <mxCell id="OvK-dSOUElt9bOt7Nwyb-12" value="Wind 10.29" style="text;html=1;align=center;verticalAlign=middle;resizable=0;points=[];autosize=1;strokeColor=none;fillColor=none;fontSize=30;fontColor=#FFFFFF;" parent="1" vertex="1">
                    <mxGeometry x="260" y="382.5" width="180" height="50" as="geometry"/>
                </mxCell>
                <mxCell id="OvK-dSOUElt9bOt7Nwyb-13" value="Gusts: 15.43" style="text;html=1;align=center;verticalAlign=middle;resizable=0;points=[];autosize=1;strokeColor=none;fillColor=none;fontSize=30;fontColor=#FFFFFF;" parent="1" vertex="1">
                    <mxGeometry x="260" y="427.5" width="190" height="50" as="geometry"/>
                </mxCell>
                <mxCell id="OvK-dSOUElt9bOt7Nwyb-14" value="Direction: 240" style="text;html=1;align=center;verticalAlign=middle;resizable=0;points=[];autosize=1;strokeColor=none;fillColor=none;fontSize=30;fontColor=#FFFFFF;" parent="1" vertex="1">
                    <mxGeometry x="260" y="467.5" width="210" height="50" as="geometry"/>
                </mxCell>
                <mxCell id="OvK-dSOUElt9bOt7Nwyb-15" value="Precipitation&lt;br&gt;snow: 2mm/h&lt;br&gt;clouds: 100%" style="text;html=1;align=center;verticalAlign=middle;resizable=0;points=[];autosize=1;strokeColor=none;fillColor=none;fontSize=30;fontColor=#FFFFFF;" parent="1" vertex="1">
                    <mxGeometry x="10" y="390" width="200" height="120" as="geometry"/>
                </mxCell>
                <mxCell id="OvK-dSOUElt9bOt7Nwyb-21" value="" style="rounded=0;whiteSpace=wrap;html=1;fontColor=#ffffff;fillColor=#0050ef;strokeColor=#001DBC;" parent="1" vertex="1">
                    <mxGeometry x="490" y="160" width="480" height="360" as="geometry"/>
                </mxCell>
                <mxCell id="OvK-dSOUElt9bOt7Nwyb-22" value="" style="rounded=0;whiteSpace=wrap;html=1;fontSize=30;fontColor=#FFFFFF;fillColor=#000066;" parent="1" vertex="1">
                    <mxGeometry x="500" y="200" width="460" height="50" as="geometry"/>
                </mxCell>
                <mxCell id="OvK-dSOUElt9bOt7Nwyb-23" value="" style="aspect=fixed;perimeter=ellipsePerimeter;html=1;align=center;shadow=0;dashed=0;spacingTop=3;image;image=img/lib/active_directory/internet_cloud.svg;fontSize=30;fontColor=#FFFFFF;fillColor=#000066;" parent="1" vertex="1">
                    <mxGeometry x="509.13" y="205" width="31.75" height="20" as="geometry"/>
                </mxCell>
                <mxCell id="OvK-dSOUElt9bOt7Nwyb-24" value="&lt;font style=&quot;font-size: 25px;&quot;&gt;0&lt;span style=&quot;white-space: pre;&quot;&gt;&#9;&lt;/span&gt;3&lt;span style=&quot;white-space: pre;&quot;&gt;&#9;&lt;/span&gt;6&lt;span style=&quot;white-space: pre;&quot;&gt;&#9;&lt;/span&gt;9&lt;span style=&quot;white-space: pre;&quot;&gt;&#9;&lt;/span&gt;12&lt;span style=&quot;white-space: pre;&quot;&gt;&#9;&lt;/span&gt;15&lt;span style=&quot;white-space: pre;&quot;&gt;&#9;&lt;/span&gt;18&lt;span style=&quot;white-space: pre;&quot;&gt;&#9;&lt;/span&gt;21&amp;nbsp;&lt;/font&gt;" style="text;html=1;strokeColor=none;fillColor=none;align=center;verticalAlign=middle;whiteSpace=wrap;rounded=0;fontSize=30;fontColor=#FFFFFF;" parent="1" vertex="1">
                    <mxGeometry x="500" y="165" width="460" height="30" as="geometry"/>
                </mxCell>
                <mxCell id="OvK-dSOUElt9bOt7Nwyb-25" value="" style="rounded=0;whiteSpace=wrap;html=1;fontSize=30;fontColor=#FFFFFF;fillColor=#000066;" parent="1" vertex="1">
                    <mxGeometry x="500" y="341" width="460" height="49" as="geometry"/>
                </mxCell>
                <mxCell id="OvK-dSOUElt9bOt7Nwyb-26" value="" style="rounded=0;whiteSpace=wrap;html=1;fontSize=30;fontColor=#FFFFFF;fillColor=#000066;" parent="1" vertex="1">
                    <mxGeometry x="500" y="267.5" width="460" height="52.5" as="geometry"/>
                </mxCell>
                <mxCell id="OvK-dSOUElt9bOt7Nwyb-27" value="" style="rounded=0;whiteSpace=wrap;html=1;fontSize=30;fontColor=#FFFFFF;fillColor=#000066;" parent="1" vertex="1">
                    <mxGeometry x="500" y="410" width="460" height="47.5" as="geometry"/>
                </mxCell>
                <mxCell id="OvK-dSOUElt9bOt7Nwyb-28" value="" style="rounded=0;whiteSpace=wrap;html=1;fontSize=30;fontColor=#FFFFFF;fillColor=#000066;" parent="1" vertex="1">
                    <mxGeometry x="500" y="470" width="460" height="50" as="geometry"/>
                </mxCell>
                <mxCell id="zq3V-1qZqstx8XcKjOe2-1" value="" style="rounded=0;whiteSpace=wrap;html=1;fillColor=none;" vertex="1" parent="1">
                    <mxGeometry x="500" y="200" width="50" height="50" as="geometry"/>
                </mxCell>
                <mxCell id="zq3V-1qZqstx8XcKjOe2-2" value="" style="rounded=0;whiteSpace=wrap;html=1;fillColor=none;" vertex="1" parent="1">
                    <mxGeometry x="559" y="200" width="50" height="50" as="geometry"/>
                </mxCell>
                <mxCell id="zq3V-1qZqstx8XcKjOe2-3" value="" style="rounded=0;whiteSpace=wrap;html=1;fillColor=none;" vertex="1" parent="1">
                    <mxGeometry x="617" y="200" width="50" height="50" as="geometry"/>
                </mxCell>
                <mxCell id="zq3V-1qZqstx8XcKjOe2-4" value="" style="rounded=0;whiteSpace=wrap;html=1;fillColor=none;" vertex="1" parent="1">
                    <mxGeometry x="676" y="200" width="50" height="50" as="geometry"/>
                </mxCell>
                <mxCell id="zq3V-1qZqstx8XcKjOe2-5" value="" style="rounded=0;whiteSpace=wrap;html=1;fillColor=none;" vertex="1" parent="1">
                    <mxGeometry x="734" y="200" width="50" height="50" as="geometry"/>
                </mxCell>
                <mxCell id="zq3V-1qZqstx8XcKjOe2-6" value="" style="rounded=0;whiteSpace=wrap;html=1;fillColor=none;" vertex="1" parent="1">
                    <mxGeometry x="793" y="200" width="50" height="50" as="geometry"/>
                </mxCell>
                <mxCell id="zq3V-1qZqstx8XcKjOe2-7" value="" style="rounded=0;whiteSpace=wrap;html=1;fillColor=none;" vertex="1" parent="1">
                    <mxGeometry x="851" y="200" width="50" height="50" as="geometry"/>
                </mxCell>
                <mxCell id="zq3V-1qZqstx8XcKjOe2-8" value="" style="rounded=0;whiteSpace=wrap;html=1;fillColor=none;" vertex="1" parent="1">
                    <mxGeometry x="910" y="200" width="50" height="50" as="geometry"/>
                </mxCell>
            </root>
        </mxGraphModel>
    </diagram>
</mxfile>